<svg width="56" height="42" viewBox="0 0 56 42" fill="none" xmlns="http://www.w3.org/2000/svg">
<rect x="1" y="1" width="53.5542" height="39.5" fill="white" stroke="#EC8C2F" stroke-width="2"/>
<path d="M41.9311 34.3173C41.9311 34.8018 41.4349 35.2166 40.8229 35.2438C40.2109 35.271 39.7148 34.9003 39.7148 34.4158L41.9311 34.3173ZM40.8228 16.3357L40.8971 15.4571L41.9309 15.4662L41.9309 16.2865L40.8228 16.3357ZM5.79831 16.6504C5.39555 16.3035 5.4426 15.7472 5.90339 15.4078L13.4125 9.87811C13.8733 9.53878 14.5733 9.54492 14.9761 9.89182C15.3789 10.2387 15.3318 10.795 14.871 11.1344L8.19627 16.0497L14.0304 21.0746C14.4331 21.4215 14.3861 21.9778 13.9253 22.3172C13.4645 22.6565 12.7645 22.6504 12.3617 22.3035L5.79831 16.6504ZM39.7148 34.4158L39.7147 16.385L41.9309 16.2865L41.9311 34.3173L39.7148 34.4158ZM40.7485 17.2143L6.55836 16.9146L6.70696 15.1573L40.8971 15.4571L40.7485 17.2143Z" fill="#EC8C2F"/>
</svg>
