<svg width="56" height="42" viewBox="0 0 56 42" fill="none" xmlns="http://www.w3.org/2000/svg">
<rect x="-1" y="1" width="53.5542" height="39.5" transform="matrix(-1 0 0 1 53.5537 0)" fill="white" stroke="#EC8C2F" stroke-width="2"/>
<path d="M13.6227 34.3173C13.6227 34.8018 14.1188 35.2166 14.7308 35.2438C15.3428 35.271 15.8389 34.9003 15.8389 34.4158L13.6227 34.3173ZM14.7309 16.3357L14.6566 15.4571L13.6228 15.4662L13.6228 16.2865L14.7309 16.3357ZM49.7554 16.6504C50.1582 16.3035 50.1111 15.7472 49.6503 15.4078L42.1412 9.87811C41.6804 9.53878 40.9804 9.54492 40.5776 9.89182C40.1748 10.2387 40.2219 10.795 40.6827 11.1344L47.3574 16.0497L41.5233 21.0746C41.1206 21.4215 41.1676 21.9778 41.6284 22.3172C42.0892 22.6565 42.7893 22.6504 43.192 22.3035L49.7554 16.6504ZM15.8389 34.4158L15.839 16.385L13.6228 16.2865L13.6227 34.3173L15.8389 34.4158ZM14.8052 17.2143L48.9954 16.9146L48.8467 15.1573L14.6566 15.4571L14.8052 17.2143Z" fill="#EC8C2F"/>
</svg>
