<svg width="48" height="111" viewBox="0 0 48 111" fill="none" xmlns="http://www.w3.org/2000/svg">
<path d="M5.434 104.476H6.358L6.358 98.344H5.434L5.434 104.476ZM8.206 104.504H9.158V98.19H8.206V104.504ZM0.24 101.998H13.12V100.99H0.24L0.24 101.998ZM2.676 105.008H9.76V104.028H3.628L3.628 98.848H9.69V97.854H2.676L2.676 105.008ZM2.872 110.23H3.838L3.838 106.002H2.872L2.872 110.23ZM0.253999 108.312H3.348L3.348 107.29H0.253999L0.253999 108.312ZM6.05 107.178L6.582 107.78C7.016 107.332 8.164 106.226 8.682 105.82L7.828 105.204C7.52 105.512 6.33 106.8 6.05 107.178ZM2.872 106.38H3.096C5.21 107.164 7.338 108.998 8.472 110.748C8.654 110.566 9.144 110.3 9.41 110.202C8.108 108.34 5.756 106.352 3.208 105.386L2.83 105.974L2.872 106.156V106.38ZM7.086 108.312H13.106V107.29H5.826L7.086 108.312ZM3.082 89.37H11.384C12.686 89.37 13.036 89.062 13.036 87.886C13.036 87.634 13.036 86.234 13.036 85.982C13.036 84.876 12.392 84.61 10.348 84.498C10.264 84.778 10.096 85.184 9.9 85.436C11.678 85.492 12.07 85.562 12.07 86.052C12.07 86.346 12.07 87.522 12.07 87.76C12.07 88.264 11.958 88.348 11.398 88.348H3.082V89.37ZM5.126 90.868C6.61 90.994 8.332 91.302 9.368 91.96L9.76 91.148C8.668 90.448 6.834 90.154 5.294 90.014L5.126 90.868ZM5.196 85.66C6.498 85.002 8.234 84.442 9.368 84.302L9.088 83.35C7.968 83.504 6.246 84.064 4.944 84.764L5.196 85.66ZM0.967999 89.748C1.556 88.712 2.452 87.522 3.11 86.962L2.368 86.262C1.71 86.836 0.855999 88.068 0.309999 89.09L0.967999 89.748ZM1.318 94.144H13.12V93.136H1.318V94.144ZM4.216 96.384H5.182V91.4H4.216V96.384ZM4.608 94.214C6.316 94.662 8.5 95.67 9.634 96.58C9.886 96.412 10.32 96.146 10.6 96.034C9.298 95.068 6.806 94.06 4.86 93.57L4.608 94.214ZM0.478 92.156C0.926 93.136 1.332 94.914 1.584 96.426C1.808 96.3 2.144 96.16 2.382 96.104C2.158 94.522 1.78 92.66 1.276 91.414L0.478 92.156ZM5.686 93.206L6.064 93.696C6.526 93.304 7.884 92.338 8.444 92.03L7.688 91.4C7.324 91.666 5.994 92.87 5.686 93.206ZM0.967999 85.114C5.574 86.122 9.438 88.376 11.986 92.422C12.14 92.17 12.49 91.82 12.714 91.666C9.984 87.494 6.092 85.282 1.192 84.134L0.967999 85.114ZM2.494 81.166H3.432L3.432 77.89H10.698V81.166H11.65V76.91H2.494L2.494 81.166ZM2.494 81.796H12.77V80.816H2.494V81.796ZM6.386 81.236H7.324V77.372H6.386V81.236ZM0.211999 79.654C0.94 79.766 2.004 80.032 2.676 80.27L2.886 79.43C2.256 79.15 1.29 78.8 0.422 78.52L0.211999 79.654ZM2.452 74.922H3.432L3.432 70.624H2.452L2.452 74.922ZM2.452 70.988H2.676C8.85 71.184 11.174 71.408 11.678 71.87C11.86 72.024 11.902 72.192 11.902 72.472C11.902 72.794 11.888 73.634 11.818 74.544C12.098 74.348 12.532 74.222 12.84 74.194C12.882 73.41 12.91 72.584 12.854 72.108C12.812 71.618 12.686 71.296 12.28 70.988C11.594 70.428 9.424 70.232 2.998 70.008C2.844 70.008 2.452 70.008 2.452 70.008V70.988ZM0.183999 74.628C2.13 75.076 4.062 75.846 5.294 76.798C5.434 76.546 5.728 76.112 5.896 75.93C4.566 74.964 2.508 74.138 0.422 73.62L0.183999 74.628ZM6.092 75.272C7.114 74.502 8.5 73.564 9.354 73.144L8.794 72.248C7.968 72.696 6.61 73.662 5.616 74.46L6.092 75.272ZM3.18 67.656L4.23 67.572C4.244 67.054 4.258 66.452 4.258 65.934C4.272 64.226 3.964 62.392 3.586 61.02L2.55 61.048C3.082 62.658 3.264 64.422 3.264 65.934C3.264 66.536 3.236 67.138 3.18 67.656ZM0.897999 62.686L0.771999 63.918C1.752 63.96 2.984 64.268 3.866 64.576C5.518 65.15 8.01 66.452 9.466 67.698L10.026 66.62C8.458 65.458 5.91 64.17 3.894 63.498C2.9 63.162 1.584 62.868 0.897999 62.686ZM5.224 59.382L5.224 60.488C6.764 60.432 9.27 60.278 10.334 60.278C11.09 60.278 11.706 60.67 11.706 61.832C11.706 62.924 11.258 63.47 10.614 63.47C9.97 63.47 9.494 62.77 9.494 61.734C9.494 59.676 10.74 58.066 11.72 56.988L10.768 56.4C9.774 57.548 8.598 59.354 8.598 61.706C8.598 63.274 9.41 64.492 10.698 64.492C12.098 64.492 12.714 63.246 12.714 61.706C12.714 59.97 11.804 59.256 10.684 59.256C9.76 59.256 7.632 59.382 6.722 59.41C6.218 59.424 5.798 59.424 5.224 59.382ZM5.588 56.582L4.664 55.952C4.16 56.624 3.25 58.206 2.816 59.228L3.656 59.788C4.09 58.864 4.944 57.338 5.588 56.582ZM1.612 49.498H2.55L2.55 41.714H1.612L1.612 49.498ZM4.958 49.848H5.91L5.91 41.462H4.958L4.958 49.848ZM9.34 48.168H10.18V43.072H9.34V48.168ZM11.622 48.14H12.518V43.002H11.622V48.14ZM0.352 46.18H2.102V45.144H0.352L0.352 46.18ZM2.83 48.294C3.488 47.986 4.37 47.692 4.93 47.608L4.72 46.642C4.16 46.74 3.292 47.062 2.662 47.37L2.83 48.294ZM2.62 43.898C3.236 44.052 4.16 44.374 4.734 44.612L4.944 43.744C4.412 43.464 3.586 43.156 2.844 42.862L2.62 43.898ZM7.072 48.728H13.106V47.762H7.94L7.94 43.408H13.078V42.414H7.072L7.072 48.728ZM1.15 53.446H2.102V51.066H9.396V53.446H10.348V50.1H1.15L1.15 53.446ZM5.238 53.39H6.176V50.534H5.238V53.39ZM1.15 53.95H11.496V52.984H1.15V53.95ZM2.242 37.878L2.214 39.236C2.536 39.152 3.138 39.152 3.46 39.152C4.272 39.152 5.98 39.124 7.184 38.998C10.81 38.606 12.126 37.346 12.126 36.016C12.126 35.064 11.314 34.224 8.948 33.37L7.954 34.252C9.354 34.616 10.796 35.274 10.796 35.988C10.796 36.996 9.242 37.668 6.904 37.906C5.756 38.004 4.468 38.018 3.6 38.004C3.236 37.99 2.564 37.948 2.242 37.878ZM2.62 30.598L2.998 31.676C4.636 30.346 7.52 29.492 10.04 29.254L9.592 28.12C7.226 28.33 4.244 29.338 2.62 30.598ZM4.398 19.37L5.28 19.818L5.28 14.918H4.398L4.398 19.37ZM6.316 20.126L6.596 20.994C9.676 19.664 12.084 17.242 13.148 14.106C12.868 13.938 12.448 13.63 12.238 13.392C11.328 16.486 9.074 18.922 6.316 20.126ZM6.302 19.174C6.792 18.572 7.492 17.872 7.954 17.564L7.366 16.864C6.918 17.214 6.246 17.914 5.784 18.516L6.302 19.174ZM1.808 26.16H2.802L2.802 13.812H1.808L1.808 26.16ZM0.24 20.588H2.326L2.326 19.482H0.24L0.24 20.588ZM2.802 22.982C4.79 23.808 6.708 25.166 7.926 26.664C8.094 26.426 8.514 26.034 8.724 25.866C7.366 24.368 5.294 22.898 3.096 21.974L2.802 22.982ZM2.788 19.132C4.58 19.79 6.624 21.134 7.884 22.744C8.066 22.52 8.402 22.184 8.626 22.016C7.24 20.336 5.07 18.908 3.082 18.082L2.788 19.132ZM4.398 15.254H4.608C8.752 16.304 11.132 19.23 12.266 22.744C12.448 22.534 12.882 22.198 13.134 22.072C11.874 18.488 9.284 15.408 4.678 14.19L4.356 14.848L4.398 15.044V15.254ZM5.84 24.312H13.12V23.262H4.846L4.832 23.304L5.84 24.312ZM2.55 6.63L3.684 6.616C3.852 5.09 3.852 2.374 3.684 0.875999H2.55C2.76 2.262 2.816 5.104 2.55 6.63ZM8.262 6.084L8.164 7.092C8.836 7.246 9.34 7.316 9.802 7.316C11.118 7.316 11.902 6.266 11.902 3.928C11.902 2.472 11.79 1.296 11.608 0.427999L10.432 0.456C10.698 1.576 10.81 2.668 10.81 3.914C10.81 5.832 10.18 6.28 9.536 6.28C9.158 6.28 8.766 6.21 8.262 6.084ZM1.472 9.29L1.374 10.536C1.682 10.55 2.032 10.592 2.354 10.634C3.516 10.802 5.91 11.264 7.968 11.264C9.872 11.264 11.482 11.026 12.476 10.746L12.406 9.752C12.252 9.766 12.056 9.78 11.916 9.794C11.748 9.794 11.482 9.766 11.286 9.724C10.614 9.598 9.144 9.08 8.15 8.73L7.688 9.318C8.262 9.556 9.102 9.878 9.732 10.116C9.046 10.2 8.458 10.242 7.786 10.242C6.204 10.242 3.712 9.808 2.41 9.542C2.158 9.486 1.71 9.374 1.472 9.29ZM17.422 99.184C17.842 100.57 18.206 103.048 18.416 105.19C18.64 105.078 19.018 104.938 19.242 104.896C19.046 102.67 18.696 100.08 18.192 98.302L17.422 99.184ZM18.15 105.498H22.812C24.856 105.498 27.502 105.624 29.476 106.912C29.602 106.674 29.924 106.31 30.148 106.156C27.992 104.728 24.954 104.546 22.826 104.546H18.71C18.682 104.35 18.626 104.28 18.528 104.266L18.15 105.498ZM19.34 102.796H28.51V101.886H19.34V102.796ZM28.118 105.008L29.07 104.868C28.888 103.538 28.664 101.76 28.44 100.052L27.558 100.08C27.782 101.914 27.992 103.748 28.118 105.008ZM25.878 101.186C27.11 100.738 28.734 100.262 29.798 100.094L29.574 99.324C28.51 99.506 26.914 99.996 25.682 100.486L25.878 101.186ZM18.094 99.24L18.15 100.108C23.19 99.912 27.684 99.576 30.134 98.162C29.868 97.98 29.532 97.616 29.35 97.378C27.222 98.708 22.77 99.072 18.094 99.24ZM17.926 110.3C19.998 108.046 22.252 107.724 24.8 107.724C26.662 107.724 28.412 107.85 28.874 108.2C29.014 108.326 29.084 108.452 29.112 108.648C29.14 108.956 29.14 109.46 29.098 110.09C29.392 109.908 29.784 109.81 30.106 109.81C30.134 109.236 30.134 108.69 30.05 108.242C29.994 107.892 29.84 107.626 29.588 107.444C28.804 106.87 26.886 106.744 24.828 106.744C22.14 106.744 19.634 107.052 17.38 109.572L17.926 110.3ZM22.392 107.71C23.666 108.312 25.122 109.53 25.836 110.608C26.018 110.37 26.382 110.076 26.634 109.922C25.766 108.83 24.198 107.584 22.854 106.94L22.392 107.71ZM17.324 107.01C18.724 107.766 20.306 109.138 21.356 110.538C21.524 110.314 21.818 109.978 22.014 109.824C20.894 108.382 19.326 106.968 17.786 106.1L17.324 107.01ZM18.136 91.064L17.996 92.366C19.074 92.366 20.334 92.548 21.454 92.814C23.162 93.192 26.9 94.312 29.042 95.908L29.49 94.76C26.942 93.178 23.456 92.184 21.482 91.708C20.614 91.512 19.466 91.33 18.962 91.232C18.696 91.176 18.388 91.12 18.136 91.064ZM19.746 86.248L20.208 87.27C21.37 86.29 23.806 85.184 25.234 84.778L24.716 83.686C23.428 84.162 20.88 85.38 19.746 86.248ZM21.202 96.104L22.42 95.992C22.364 95.628 22.294 95.054 22.252 94.732C22.168 93.878 21.846 91.246 21.846 90.308C21.846 89.412 22.084 88.824 23.372 88.824C24.884 88.824 26.704 89.048 27.656 89.496C28.258 89.776 28.37 90.196 28.37 90.714C28.37 91.106 28.272 91.848 28.09 92.436L29.252 92.24C29.364 91.806 29.462 91.134 29.462 90.602C29.462 89.692 29.224 88.992 28.286 88.558C27.124 87.97 24.898 87.746 23.232 87.746C21.342 87.746 20.866 88.768 20.866 90.014C20.866 90.966 21.174 93.808 21.202 94.858C21.216 95.306 21.23 95.67 21.202 96.104ZM17.716 86.094L18.038 86.85C18.57 86.458 19.41 85.982 19.984 85.702L19.648 84.946C19.074 85.24 18.22 85.744 17.716 86.094ZM17.156 84.554L17.478 85.296C17.996 84.89 18.794 84.428 19.41 84.134L19.074 83.364C18.556 83.644 17.674 84.176 17.156 84.554ZM20.656 80.69C21.244 78.688 22.378 76.238 23.316 75.034L22.434 74.376C21.51 75.65 20.418 78.114 19.872 80.102L20.656 80.69ZM17.982 81.474H18.948V71.562H17.982V81.474ZM17.982 71.912H18.15C21.706 72.052 23.008 72.248 23.33 72.542C23.47 72.668 23.498 72.794 23.484 73.046C23.498 73.312 23.484 73.97 23.428 74.684C23.708 74.516 24.114 74.418 24.422 74.39C24.464 73.662 24.464 72.948 24.436 72.57C24.394 72.164 24.296 71.884 24.002 71.646C23.526 71.24 22.154 71.044 18.458 70.862C18.304 70.848 17.982 70.848 17.982 70.848V71.912ZM18.388 77.036C20.796 77.386 23.134 78.128 24.212 82.076C24.422 81.852 24.828 81.586 25.094 81.474C23.834 77.26 21.244 76.294 18.388 75.874V77.036ZM25.598 78.856H28.552C29.672 78.856 29.98 78.464 29.98 76.952C29.98 76.658 29.98 74.46 29.98 74.124C29.98 72.85 29.532 72.542 27.698 72.402C27.628 72.682 27.474 73.116 27.292 73.34C28.804 73.41 29.028 73.522 29.028 74.194C29.028 74.684 29.028 76.532 29.028 76.896C29.028 77.68 28.944 77.82 28.538 77.82H25.598V78.856ZM24.828 77.904C25.332 76.91 26.172 75.762 26.83 75.258L26.116 74.488C25.458 75.034 24.66 76.182 24.17 77.19L24.828 77.904ZM25.934 73.032C26.956 71.954 28.398 70.89 29.406 70.512L28.874 69.574C27.838 69.994 26.452 71.086 25.458 72.178L25.934 73.032ZM25.808 80.592C27.026 80.872 28.272 81.474 28.972 82.496L29.546 81.628C28.748 80.55 27.418 79.99 26.102 79.654L25.808 80.592ZM18.878 59.004L19.186 60.096C22.056 59.27 24.142 58.318 25.794 56.764L24.814 56.036C22.952 58.094 20.572 58.71 18.878 59.004ZM19.62 67.754L20.796 67.67C20.754 67.376 20.712 67.138 20.684 66.872C20.614 66.368 20.474 65.22 20.362 64.506C21.762 65.738 23.764 67.11 26.382 67.11C28.692 67.11 29.924 65.514 29.924 63.302C29.924 58.92 25.598 58.122 21.594 58.85L19.704 59.872C25.192 58.808 28.776 59.942 28.776 63.274C28.776 64.716 28.118 66.018 26.144 66.018C23.26 66.018 20.81 63.876 20.152 62.994C20.068 62.784 19.97 62.434 19.914 62.252L18.92 62.574C19.242 63.4 19.564 65.752 19.62 66.998C19.634 67.25 19.634 67.544 19.62 67.754ZM18.08 57.772L18.332 58.472C18.864 58.164 19.69 57.8 20.32 57.548L20.054 56.82C19.48 57.058 18.612 57.492 18.08 57.772ZM17.534 56.344L17.8 57.03C18.332 56.708 19.144 56.344 19.774 56.092L19.494 55.35C18.906 55.616 18.052 56.05 17.534 56.344ZM17.24 48.546H18.976V47.496H17.24V48.546ZM18.374 53.978H20.852V52.998H19.284V43.044H20.852V42.036H18.374V53.978ZM20.418 52.452H21.272V43.562H20.418V52.452ZM19.466 48.49C21.608 48.728 22.532 49.526 22.98 53.026C23.176 52.858 23.554 52.634 23.778 52.55C23.204 48.742 22.028 47.79 19.466 47.482V48.49ZM22.098 48.868C22.546 47.202 23.33 45.088 23.932 44.01L23.176 43.478C22.574 44.598 21.832 46.726 21.44 48.35L22.098 48.868ZM23.778 54.202H24.716V41.798H23.778V54.202ZM24.38 44.864H28.916C29.112 44.864 29.154 44.934 29.182 45.158C29.182 45.382 29.182 46.152 29.154 47.02C29.448 46.88 29.84 46.726 30.12 46.684C30.12 45.578 30.12 44.85 29.966 44.416C29.812 43.954 29.532 43.828 28.944 43.828H24.38V44.864ZM25.584 52.368H29.392V51.388H25.584V52.368ZM25.584 51.892H26.41V47.86H27.852V51.892H28.678V46.866H25.584V51.892ZM18.696 37.668L19.844 37.64C19.802 37.332 19.788 37.024 19.76 36.702C19.718 35.974 19.606 33.174 19.564 32.432C20.194 33.132 21.664 34.896 22.308 35.68C22.994 36.478 24.506 38.284 25.458 39.446L26.27 38.634C24.464 36.87 23.484 35.61 23.484 33.286C23.484 31.452 24.506 30.136 25.892 30.136C27.642 30.136 28.622 31.634 28.622 34.014C28.622 35.12 28.216 35.89 27.53 35.89C27.04 35.89 26.648 35.4 26.648 34.756C26.648 33.636 27.502 32.95 28.692 32.866L28.524 31.858C27.11 31.956 25.794 32.894 25.794 34.756C25.794 36.044 26.662 36.912 27.614 36.912C28.79 36.912 29.616 35.75 29.616 33.846C29.616 30.878 28.146 29.016 25.892 29.016C24.002 29.016 22.616 30.682 22.616 33.006C22.616 33.636 22.686 34.308 22.896 34.952C22 33.86 20.362 31.956 19.83 31.27C19.62 31.004 19.438 30.724 19.27 30.472L18.444 31.116C18.5 31.27 18.528 31.466 18.57 31.886C18.64 32.628 18.738 35.946 18.738 36.688C18.738 36.968 18.724 37.36 18.696 37.668ZM36.2 109.642H37.152V98.372H36.2V109.642ZM38.286 108.942H39.196V98.988H38.286V108.942ZM40.386 110.202H41.338V97.812H40.386V110.202ZM42.626 110.3H43.564V97.672H42.626V110.3ZM36.732 104.574H41.072V103.496H36.732V104.574ZM34.604 107.85C35.136 107.346 35.906 106.87 36.438 106.688L35.99 105.708C35.472 105.932 34.744 106.422 34.226 106.94L34.604 107.85ZM34.226 101.27C34.758 101.564 35.542 102.082 36.018 102.502L36.34 101.578C35.878 101.172 35.206 100.64 34.562 100.192L34.226 101.27ZM41.156 104.63C43.956 104.938 45.51 105.75 46.196 110.482C46.42 110.286 46.854 110.034 47.12 109.95C46.308 104.924 44.432 103.902 41.156 103.524V104.63ZM42.906 103.216L43.102 104.182C45.552 103.244 46.728 101.34 47.148 98.106C46.854 97.98 46.406 97.7 46.182 97.462C45.888 100.528 44.922 102.418 42.906 103.216ZM35.094 92.24V93.668C35.5 93.584 35.99 93.542 36.508 93.542C37.978 93.542 41.52 93.682 43.592 93.682C45.888 93.682 46.714 92.296 46.714 90.28C46.714 87.214 44.964 85.394 43.634 84.442L42.682 85.226C44.138 86.234 45.566 87.69 45.566 90.252C45.566 91.582 45.034 92.548 43.494 92.548C41.408 92.548 38.09 92.436 36.508 92.38C36.046 92.352 35.556 92.31 35.094 92.24ZM36.242 79.878L36.214 81.236C36.536 81.152 37.138 81.152 37.46 81.152C38.272 81.152 39.98 81.124 41.184 80.998C44.81 80.606 46.126 79.346 46.126 78.016C46.126 77.064 45.314 76.224 42.948 75.37L41.954 76.252C43.354 76.616 44.796 77.274 44.796 77.988C44.796 78.996 43.242 79.668 40.904 79.906C39.756 80.004 38.468 80.018 37.6 80.004C37.236 79.99 36.564 79.948 36.242 79.878ZM36.62 72.598L36.998 73.676C38.636 72.346 41.52 71.492 44.04 71.254L43.592 70.12C41.226 70.33 38.244 71.338 36.62 72.598ZM35.808 57.674L35.374 58.948C35.668 59.018 36.13 59.144 36.41 59.242C37.782 59.718 39.336 60.418 40.82 61.566C42.654 63.008 44.32 64.8 45.566 67.404L46.434 66.452C45.062 63.806 43.214 61.986 41.506 60.642C40.05 59.494 38.23 58.654 36.844 58.122C36.55 58.01 36.074 57.814 35.808 57.674ZM37.46 65.066L38.342 65.808C39.28 64.268 40.666 62.448 41.506 61.44C42.682 60.04 43.788 58.822 45.132 57.66L44.166 56.778C42.962 57.884 41.744 59.27 40.596 60.67C39.742 61.734 38.342 63.68 37.46 65.066ZM36.41 52.956C36.76 52.942 37.18 52.942 37.502 52.942C38.048 52.942 43.83 52.942 44.404 52.942C44.894 52.942 45.916 52.97 46.098 52.97V51.78C45.916 51.78 45.02 51.794 44.558 51.794C43.984 51.794 37.544 51.794 37.544 51.794V44.15C37.544 44.15 44.04 44.15 44.558 44.15C45.146 44.15 45.944 44.164 46.098 44.178V42.96C45.944 42.974 44.852 42.988 44.404 42.988C43.872 42.988 38.16 42.988 37.502 42.988C37.152 42.988 36.76 42.988 36.424 42.96C36.438 43.394 36.438 43.898 36.438 44.192C36.438 44.878 36.438 50.968 36.438 51.71C36.438 52.046 36.438 52.41 36.41 52.956ZM44.208 43.688V52.354H45.3V43.688H44.208ZM35.752 37.822L36.606 38.634C37.292 37.584 38.804 35.848 39.532 35.134L38.636 34.266C37.866 35.036 36.41 36.842 35.752 37.822ZM45.132 39.026L46.28 38.298C45.846 35.96 44.978 34.196 44.096 32.782C42.766 30.668 40.862 29.044 39.126 28.092L37.922 28.764C39.658 29.576 41.73 31.27 43.088 33.44C43.914 34.77 44.768 36.59 45.132 39.026ZM36.55 20.63L37.684 20.616C37.852 19.09 37.852 16.374 37.684 14.876H36.55C36.76 16.262 36.816 19.104 36.55 20.63ZM42.262 20.084L42.164 21.092C42.836 21.246 43.34 21.316 43.802 21.316C45.118 21.316 45.902 20.266 45.902 17.928C45.902 16.472 45.79 15.296 45.608 14.428L44.432 14.456C44.698 15.576 44.81 16.668 44.81 17.914C44.81 19.832 44.18 20.28 43.536 20.28C43.158 20.28 42.766 20.21 42.262 20.084ZM35.472 23.29L35.374 24.536C35.682 24.55 36.032 24.592 36.354 24.634C37.516 24.802 39.91 25.264 41.968 25.264C43.872 25.264 45.482 25.026 46.476 24.746L46.406 23.752C46.252 23.766 46.056 23.78 45.916 23.794C45.748 23.794 45.482 23.766 45.286 23.724C44.614 23.598 43.144 23.08 42.15 22.73L41.688 23.318C42.262 23.556 43.102 23.878 43.732 24.116C43.046 24.2 42.458 24.242 41.786 24.242C40.204 24.242 37.712 23.808 36.41 23.542C36.158 23.486 35.71 23.374 35.472 23.29Z" fill="#EB4E4E"/>
</svg>
