<svg width="48" height="283" viewBox="0 0 48 283" fill="none" xmlns="http://www.w3.org/2000/svg">
<path d="M0.926 276.406L0.884 277.568C1.066 277.568 1.318 277.582 1.57 277.61C2.774 277.736 5.042 278.016 6.96 278.016C8.738 278.016 10.726 277.638 11.972 277.232L11.664 276.21C10.348 276.644 8.668 277.036 6.848 277.036C4.93 277.036 2.718 276.798 1.542 276.56C1.346 276.518 1.094 276.462 0.926 276.406ZM2.648 278.66C2.648 279.262 2.564 280.48 2.48 280.97L3.53 280.942C3.558 280.368 3.614 279.276 3.614 278.674C3.614 276.588 3.404 273.83 3.054 271.814L2.018 271.828C2.452 273.76 2.648 276.196 2.648 278.66ZM4.3 272.822L4.02 273.942C4.244 273.956 4.622 274.026 4.832 274.082C7.1 274.726 8.612 275.874 9.704 277.12C10.488 278.016 10.88 278.926 10.88 279.626C10.88 280.144 10.6 280.424 10.026 280.424C8.738 280.424 7.198 279.164 6.498 277.582C6.176 276.868 5.84 275.832 5.84 274.656C5.84 272.57 7.03 271.422 8.388 271.422C10.194 271.422 11.496 272.99 11.776 275.51L12.714 274.908C12.196 271.66 10.446 270.33 8.444 270.33C6.484 270.33 4.944 271.996 4.944 274.642C4.944 275.552 5.154 276.686 5.518 277.624C6.316 279.696 8.29 281.474 10.208 281.474C11.398 281.474 11.958 280.746 11.958 279.822C11.958 278.828 11.44 277.708 10.754 276.812C9.62 275.342 7.674 273.942 5.084 273.116C4.86 273.032 4.482 272.906 4.3 272.822ZM3.18 267.656L4.23 267.572C4.244 267.054 4.258 266.452 4.258 265.934C4.272 264.226 3.964 262.392 3.586 261.02L2.55 261.048C3.082 262.658 3.264 264.422 3.264 265.934C3.264 266.536 3.236 267.138 3.18 267.656ZM0.897999 262.686L0.771999 263.918C1.752 263.96 2.984 264.268 3.866 264.576C5.518 265.15 8.01 266.452 9.466 267.698L10.026 266.62C8.458 265.458 5.91 264.17 3.894 263.498C2.9 263.162 1.584 262.868 0.897999 262.686ZM5.224 259.382V260.488C6.764 260.432 9.27 260.278 10.334 260.278C11.09 260.278 11.706 260.67 11.706 261.832C11.706 262.924 11.258 263.47 10.614 263.47C9.97 263.47 9.494 262.77 9.494 261.734C9.494 259.676 10.74 258.066 11.72 256.988L10.768 256.4C9.774 257.548 8.598 259.354 8.598 261.706C8.598 263.274 9.41 264.492 10.698 264.492C12.098 264.492 12.714 263.246 12.714 261.706C12.714 259.97 11.804 259.256 10.684 259.256C9.76 259.256 7.632 259.382 6.722 259.41C6.218 259.424 5.798 259.424 5.224 259.382ZM5.588 256.582L4.664 255.952C4.16 256.624 3.25 258.206 2.816 259.228L3.656 259.788C4.09 258.864 4.944 257.338 5.588 256.582ZM0.996 248.812L0.884 250.142C1.178 250.114 1.654 250.142 2.046 250.198C2.774 250.296 4.538 250.66 5.826 250.996C7.8 251.528 10.642 252.508 12.098 253.348L12.504 252.13C10.978 251.388 8.08 250.45 6.092 249.946C4.692 249.554 3.11 249.26 2.102 249.05C1.836 248.994 1.304 248.896 0.996 248.812ZM3.334 251.906C3.334 252.424 3.306 252.928 3.222 253.586L4.314 253.558C4.356 253.04 4.37 252.55 4.37 251.934C4.37 250.422 4.132 248.308 3.74 246.572H2.648C3.082 248.308 3.334 250.366 3.334 251.906ZM5.252 247.482H6.302C6.204 246.628 6.148 245.76 6.148 244.892C6.148 244.066 6.232 243.254 6.316 242.526L5.252 242.498C5.168 243.254 5.14 244.108 5.14 244.92C5.14 245.816 5.182 246.754 5.252 247.482ZM8.654 247.202L8.556 248.238C9.144 248.364 9.676 248.448 10.208 248.448C11.594 248.448 12.266 247.244 12.266 245.046C12.266 244.024 12.182 243.086 12.07 242.33L10.95 242.288C11.118 243.156 11.216 244.108 11.216 245.032C11.216 247.02 10.572 247.398 9.914 247.398C9.55 247.398 9.116 247.314 8.654 247.202ZM2.452 233.118L2.424 234.28C3.88 234.42 5.462 234.714 6.792 235.12C9.158 235.834 10.11 236.59 10.11 237.248C10.11 237.878 9.326 238.676 7.562 238.676C5.504 238.676 2.97 236.758 2.97 233.678C2.97 230.99 4.818 229.436 7.058 229.436C9.48 229.436 10.824 231.2 11.23 232.992C11.3 233.328 11.356 233.748 11.398 234.196L12.434 233.552C12 230.22 10.04 228.288 7.114 228.288C4.272 228.288 1.962 230.374 1.962 233.65C1.962 237.08 4.608 239.782 7.646 239.782C9.97 239.782 11.398 238.536 11.398 237.276C11.398 235.988 9.914 234.868 7.044 234.014C5.546 233.58 3.908 233.3 2.452 233.118ZM2.802 224.886H5.616C7.562 224.886 10.278 225.054 12.224 226.58C12.336 226.314 12.63 225.866 12.812 225.684C10.768 224.116 7.73 223.864 5.63 223.864H2.802V224.886ZM2.802 224.34H3.628L3.628 216.024H4.916L4.916 224.34H5.742L5.742 214.988H2.802L2.802 224.34ZM0.967999 225.922H1.906L1.906 214.134H0.967999L0.967999 225.922ZM6.624 223.108H13.148V222.1H7.408V215.45H6.624V223.108ZM6.624 215.94H12.028C12.21 215.94 12.28 215.996 12.294 216.206C12.294 216.43 12.294 217.172 12.266 217.984C12.532 217.844 12.896 217.704 13.148 217.662C13.148 216.584 13.148 215.884 13.008 215.45C12.854 215.016 12.588 214.89 12.028 214.89H6.624V215.94ZM8.416 222.618H9.144V215.422H8.416V222.618ZM10.18 222.618H10.95V215.422H10.18V222.618ZM2.452 205.118L2.424 206.28C3.88 206.42 5.462 206.714 6.792 207.12C9.158 207.834 10.11 208.59 10.11 209.248C10.11 209.878 9.326 210.676 7.562 210.676C5.504 210.676 2.97 208.758 2.97 205.678C2.97 202.99 4.818 201.436 7.058 201.436C9.48 201.436 10.824 203.2 11.23 204.992C11.3 205.328 11.356 205.748 11.398 206.196L12.434 205.552C12 202.22 10.04 200.288 7.114 200.288C4.272 200.288 1.962 202.374 1.962 205.65C1.962 209.08 4.608 211.782 7.646 211.782C9.97 211.782 11.398 210.536 11.398 209.276C11.398 207.988 9.914 206.868 7.044 206.014C5.546 205.58 3.908 205.3 2.452 205.118ZM4.776 192.42H5.826L5.826 186.666H4.776L4.776 192.42ZM11.412 198.286H12.462L12.462 185.714H11.412L11.412 198.286ZM0.449999 193.022H11.972V191.916H0.449999V193.022ZM2.55 178.63L3.684 178.616C3.852 177.09 3.852 174.374 3.684 172.876H2.55C2.76 174.262 2.816 177.104 2.55 178.63ZM8.262 178.084L8.164 179.092C8.836 179.246 9.34 179.316 9.802 179.316C11.118 179.316 11.902 178.266 11.902 175.928C11.902 174.472 11.79 173.296 11.608 172.428L10.432 172.456C10.698 173.576 10.81 174.668 10.81 175.914C10.81 177.832 10.18 178.28 9.536 178.28C9.158 178.28 8.766 178.21 8.262 178.084ZM1.472 181.29L1.374 182.536C1.682 182.55 2.032 182.592 2.354 182.634C3.516 182.802 5.91 183.264 7.968 183.264C9.872 183.264 11.482 183.026 12.476 182.746L12.406 181.752C12.252 181.766 12.056 181.78 11.916 181.794C11.748 181.794 11.482 181.766 11.286 181.724C10.614 181.598 9.144 181.08 8.15 180.73L7.688 181.318C8.262 181.556 9.102 181.878 9.732 182.116C9.046 182.2 8.458 182.242 7.786 182.242C6.204 182.242 3.712 181.808 2.41 181.542C2.158 181.486 1.71 181.374 1.472 181.29ZM3.978 170.16H5.042L5.042 157.798H3.978L3.978 170.16ZM9.984 165.638C10.824 164.644 12.028 163.426 12.812 162.866L12.07 161.928C11.314 162.516 10.152 163.762 9.354 164.756L9.984 165.638ZM4.454 163.202L4.706 164.21C8.612 163.188 11.664 161.298 13.148 158.218C12.84 158.036 12.42 157.686 12.182 157.42C10.922 160.388 7.982 162.292 4.454 163.202ZM0.253999 164.672C3.768 164.7 9.718 164.574 12.252 170.496C12.476 170.202 12.854 169.866 13.12 169.712C10.348 163.608 4.09 163.594 0.253999 163.538V164.672ZM6.19 152.016H7.058V143.56H6.19V152.016ZM8.052 150.476H8.92V144.722H8.052V150.476ZM6.512 149.916C7.912 150.434 9.13 151.456 9.914 152.646C10.082 152.436 10.404 152.1 10.586 151.96C9.69 150.742 8.304 149.65 6.722 149.02L6.512 149.916ZM8.374 148.824C9.928 149.496 11.3 150.728 12.168 152.086C12.322 151.904 12.672 151.596 12.854 151.47C11.874 150.07 10.362 148.74 8.612 147.97L8.374 148.824ZM8.388 146.766C10.068 147.242 11.538 148.18 12.476 149.37C12.63 149.174 12.938 148.824 13.092 148.684C12.056 147.466 10.446 146.458 8.598 145.898L8.388 146.766ZM8.052 145.002H8.22C10.88 145.156 11.874 145.338 12.126 145.576C12.252 145.674 12.266 145.772 12.266 145.954C12.266 146.136 12.252 146.57 12.21 147.032C12.462 146.906 12.826 146.808 13.106 146.794C13.134 146.29 13.134 145.8 13.106 145.52C13.064 145.198 12.98 144.974 12.742 144.764C12.364 144.414 11.3 144.232 8.486 144.05C8.332 144.036 8.052 144.022 8.052 144.022V145.002ZM3.446 149.804L3.446 145.702H4.552L4.552 149.804H3.446ZM1.598 149.804L1.598 145.702H2.69L2.69 149.804H1.598ZM0.814 150.784H5.35L5.35 144.694H0.814L0.814 150.784ZM0.855999 155.88H13.134V154.928H1.808V152.576H0.855999V155.88ZM0.855999 152.898H1.136C2.102 153.192 3.768 153.71 5.042 154.214C6.134 153.206 7.086 152.954 7.842 152.954C8.262 152.954 8.64 153.024 8.794 153.248C8.878 153.36 8.92 153.514 8.92 153.682C8.948 153.906 8.934 154.172 8.906 154.494C9.172 154.34 9.578 154.256 9.83 154.242C9.844 153.92 9.844 153.57 9.816 153.29C9.774 153.01 9.69 152.758 9.564 152.562C9.284 152.17 8.696 152.016 7.94 152.016C7.072 152.016 6.092 152.24 4.93 153.276C3.81 152.8 2.368 152.282 1.22 151.876L0.814 152.548L0.855999 152.716V152.898ZM2.452 135.118L2.424 136.28C3.88 136.42 5.462 136.714 6.792 137.12C9.158 137.834 10.11 138.59 10.11 139.248C10.11 139.878 9.326 140.676 7.562 140.676C5.504 140.676 2.97 138.758 2.97 135.678C2.97 132.99 4.818 131.436 7.058 131.436C9.48 131.436 10.824 133.2 11.23 134.992C11.3 135.328 11.356 135.748 11.398 136.196L12.434 135.552C12 132.22 10.04 130.288 7.114 130.288C4.272 130.288 1.962 132.374 1.962 135.65C1.962 139.08 4.608 141.782 7.646 141.782C9.97 141.782 11.398 140.536 11.398 139.276C11.398 137.988 9.914 136.868 7.044 136.014C5.546 135.58 3.908 135.3 2.452 135.118ZM6.344 120.782H11.552C12.756 120.782 13.106 120.46 13.106 119.2C13.106 118.948 13.106 117.436 13.106 117.17C13.106 115.98 12.49 115.7 10.194 115.574C10.124 115.854 9.942 116.316 9.76 116.54C11.776 116.61 12.112 116.694 12.112 117.24C12.112 117.576 12.112 118.822 12.112 119.088C12.112 119.634 12.014 119.732 11.552 119.732H6.344V120.782ZM6.414 124.478C9.172 124.702 11.202 125.178 12.224 128.524C12.434 128.3 12.868 127.992 13.12 127.866C11.944 124.282 9.592 123.624 6.414 123.372V124.478ZM1.276 127.068C2.382 126.368 3.866 125.654 4.79 125.416L4.384 124.408C3.446 124.674 2.004 125.416 0.94 126.13L1.276 127.068ZM0.771999 117.87C1.892 118.276 3.446 119.046 4.384 119.648L4.748 118.752C3.838 118.136 2.396 117.366 1.178 116.778L0.771999 117.87ZM5.602 128.244H6.596L6.596 115.728H5.602L5.602 128.244ZM0.24 122.574H6.008V121.51H0.24V122.574ZM2.55 108.63L3.684 108.616C3.852 107.09 3.852 104.374 3.684 102.876H2.55C2.76 104.262 2.816 107.104 2.55 108.63ZM8.262 108.084L8.164 109.092C8.836 109.246 9.34 109.316 9.802 109.316C11.118 109.316 11.902 108.266 11.902 105.928C11.902 104.472 11.79 103.296 11.608 102.428L10.432 102.456C10.698 103.576 10.81 104.668 10.81 105.914C10.81 107.832 10.18 108.28 9.536 108.28C9.158 108.28 8.766 108.21 8.262 108.084ZM1.472 111.29L1.374 112.536C1.682 112.55 2.032 112.592 2.354 112.634C3.516 112.802 5.91 113.264 7.968 113.264C9.872 113.264 11.482 113.026 12.476 112.746L12.406 111.752C12.252 111.766 12.056 111.78 11.916 111.794C11.748 111.794 11.482 111.766 11.286 111.724C10.614 111.598 9.144 111.08 8.15 110.73L7.688 111.318C8.262 111.556 9.102 111.878 9.732 112.116C9.046 112.2 8.458 112.242 7.786 112.242C6.204 112.242 3.712 111.808 2.41 111.542C2.158 111.486 1.71 111.374 1.472 111.29ZM1.01 93.426L1.01 94.756C1.276 94.7 1.892 94.658 2.41 94.644C3.012 94.644 4.16 94.63 4.972 94.63C6.4 94.63 9.116 94.462 10.152 94.462C11.118 94.462 11.608 94.966 11.608 95.988C11.608 97.346 11.174 98.13 10.404 98.13C9.62 98.13 9.13 97.304 9.13 95.848C9.13 93.398 10.502 91.102 11.902 89.702L10.852 89.03C9.55 90.458 8.15 92.95 8.15 95.722C8.15 98.144 9.172 99.236 10.446 99.236C12.042 99.236 12.644 97.822 12.644 95.876C12.644 94.014 11.664 93.314 10.53 93.314C9.298 93.314 6.498 93.538 4.972 93.538C4.006 93.538 3.04 93.538 2.41 93.538C1.99 93.524 1.318 93.482 1.01 93.426ZM3.838 94.154H4.874C4.874 93.146 4.776 90.864 4.636 89.352L3.586 89.394C3.768 90.906 3.838 93.188 3.838 94.154ZM6.414 85.1838L7.576 84.7078C7.212 83.8118 5.938 80.7458 5.938 79.0238C5.938 77.5818 6.82 76.6438 8.01 76.6438C10.292 76.6438 11.16 79.3038 11.244 82.3418L12.322 81.8798C12.098 78.1138 10.726 75.5098 8.024 75.5098C6.12 75.5098 4.93 76.9518 4.93 78.9398C4.93 80.5778 5.77 82.8878 6.078 83.8818C6.218 84.3158 6.344 84.7778 6.414 85.1838ZM2.704 72.9451L3.936 72.8191C3.614 71.2931 3.264 67.7371 3.11 66.2251C3.866 67.5131 5.644 68.8431 7.828 68.8431C10.964 68.8431 12.336 65.9031 12.434 63.2991L11.286 62.9071C11.188 65.1751 10.32 67.7371 7.59 67.7371C5.938 67.7371 3.796 66.5191 3.152 64.5171C2.956 63.8031 2.928 62.5851 2.942 61.7731L1.822 61.7871C1.85 62.7251 1.934 64.0271 2.06 65.5531C2.284 68.1431 2.536 70.7751 2.634 71.6851C2.662 71.9651 2.69 72.4131 2.704 72.9451ZM10.586 59.3791L10.586 57.8531H12L13.554 58.4411L13.554 59.1691L12 58.7911L12 59.3791H10.586ZM18.094 278.24V279.668C18.5 279.584 18.99 279.542 19.508 279.542C20.978 279.542 24.52 279.682 26.592 279.682C28.888 279.682 29.714 278.296 29.714 276.28C29.714 273.214 27.964 271.394 26.634 270.442L25.682 271.226C27.138 272.234 28.566 273.69 28.566 276.252C28.566 277.582 28.034 278.548 26.494 278.548C24.408 278.548 21.09 278.436 19.508 278.38C19.046 278.352 18.556 278.31 18.094 278.24ZM18.08 262.882L17.954 264.17C19.032 264.17 20.292 264.366 21.398 264.618C23.12 264.996 26.858 266.116 28.986 267.712L29.448 266.578C26.886 264.996 23.4 263.988 21.44 263.512C20.572 263.33 19.424 263.134 18.92 263.05C18.64 262.994 18.346 262.938 18.08 262.882ZM19.578 258.052L20.04 259.074C21.188 258.094 23.666 257.002 25.108 256.582L24.59 255.504C23.288 255.966 20.712 257.184 19.578 258.052ZM21.16 267.922L22.364 267.796C22.308 267.446 22.238 266.858 22.196 266.536C22.112 265.682 21.804 263.064 21.804 262.126C21.804 261.23 22.042 260.642 23.316 260.642C24.828 260.642 26.662 260.852 27.6 261.3C28.216 261.594 28.328 262.014 28.328 262.532C28.328 262.924 28.216 263.652 28.034 264.24L29.21 264.058C29.308 263.61 29.406 262.952 29.406 262.406C29.406 261.51 29.182 260.81 28.244 260.362C27.082 259.788 24.856 259.564 23.19 259.564C21.286 259.564 20.81 260.586 20.81 261.832C20.81 262.784 21.132 265.626 21.16 266.662C21.174 267.11 21.174 267.474 21.16 267.922ZM18.094 250.24V251.668C18.5 251.584 18.99 251.542 19.508 251.542C20.978 251.542 24.52 251.682 26.592 251.682C28.888 251.682 29.714 250.296 29.714 248.28C29.714 245.214 27.964 243.394 26.634 242.442L25.682 243.226C27.138 244.234 28.566 245.69 28.566 248.252C28.566 249.582 28.034 250.548 26.494 250.548C24.408 250.548 21.09 250.436 19.508 250.38C19.046 250.352 18.556 250.31 18.094 250.24ZM29.784 237.178L28.972 236.226C27.95 237.108 26.69 238.368 25.878 239.376L26.676 240.286C27.488 239.292 28.678 238.088 29.784 237.178ZM17.982 223.458H19.004V216.15H17.982V223.458ZM21.356 223.458H22.364V216.094H21.356V223.458ZM24.744 223.57H25.752V216.164H24.744V223.57ZM17.982 224.102H22.308C24.562 224.102 27.404 224.34 29.378 226.594C29.532 226.37 29.91 225.95 30.134 225.796C28.034 223.388 24.73 223.038 22.308 223.038H17.982V224.102ZM17.982 216.612H28.566C28.874 216.612 28.972 216.724 28.986 217.046C28.986 217.368 29 218.516 28.958 219.678C29.252 219.496 29.756 219.3 30.064 219.23C30.064 217.718 30.05 216.794 29.868 216.248C29.686 215.716 29.322 215.52 28.58 215.52H17.982V216.612ZM18.108 211.306H19.074V208.268H25.486V211.306H26.466V207.288H18.108V211.306ZM21.734 211.292H22.686V207.848H21.734V211.292ZM17.842 205.384H18.822V200.666H17.842V205.384ZM21.244 205.384H22.21V200.666H21.244V205.384ZM24.688 205.468H25.64V200.694H24.688V205.468ZM18.108 211.88H27.768V210.9H18.108V211.88ZM17.842 201.058H28.734C28.986 201.058 29.07 201.142 29.084 201.394C29.084 201.646 29.098 202.528 29.07 203.424C29.35 203.27 29.812 203.102 30.092 203.046C30.092 201.842 30.078 201.072 29.91 200.624C29.728 200.176 29.406 200.008 28.748 200.008H17.842V201.058ZM17.842 206H22.84C25.024 206 27.684 206.238 29.504 208.604C29.644 208.38 30.008 207.988 30.218 207.834C28.286 205.314 25.192 204.964 22.84 204.964H17.842V206ZM18.08 192.882L17.954 194.17C19.032 194.17 20.292 194.366 21.398 194.618C23.12 194.996 26.858 196.116 28.986 197.712L29.448 196.578C26.886 194.996 23.4 193.988 21.44 193.512C20.572 193.33 19.424 193.134 18.92 193.05C18.64 192.994 18.346 192.938 18.08 192.882ZM19.578 188.052L20.04 189.074C21.188 188.094 23.666 187.002 25.108 186.582L24.59 185.504C23.288 185.966 20.712 187.184 19.578 188.052ZM21.16 197.922L22.364 197.796C22.308 197.446 22.238 196.858 22.196 196.536C22.112 195.682 21.804 193.064 21.804 192.126C21.804 191.23 22.042 190.642 23.316 190.642C24.828 190.642 26.662 190.852 27.6 191.3C28.216 191.594 28.328 192.014 28.328 192.532C28.328 192.924 28.216 193.652 28.034 194.24L29.21 194.058C29.308 193.61 29.406 192.952 29.406 192.406C29.406 191.51 29.182 190.81 28.244 190.362C27.082 189.788 24.856 189.564 23.19 189.564C21.286 189.564 20.81 190.586 20.81 191.832C20.81 192.784 21.132 195.626 21.16 196.662C21.174 197.11 21.174 197.474 21.16 197.922ZM17.954 180.268L17.912 181.486C18.304 181.514 18.696 181.542 19.116 181.598C20.264 181.766 22.322 182.032 23.652 182.032C24.562 182.032 25.346 181.962 25.878 181.892L25.794 180.8C25.094 180.898 24.604 180.898 24.072 180.828C22.238 180.66 19.69 179.036 19.69 177.286C19.69 175.816 21.286 175.074 23.498 175.074C27.012 175.074 28.244 177.44 28.706 180.492L29.714 179.82C29.084 176.362 27.362 173.912 23.484 173.912C20.544 173.912 18.668 175.256 18.668 177.104C18.668 178.882 20.418 180.338 21.86 180.912C20.88 180.828 18.99 180.562 17.954 180.268ZM19.452 163.118L19.424 164.28C20.88 164.42 22.462 164.714 23.792 165.12C26.158 165.834 27.11 166.59 27.11 167.248C27.11 167.878 26.326 168.676 24.562 168.676C22.504 168.676 19.97 166.758 19.97 163.678C19.97 160.99 21.818 159.436 24.058 159.436C26.48 159.436 27.824 161.2 28.23 162.992C28.3 163.328 28.356 163.748 28.398 164.196L29.434 163.552C29 160.22 27.04 158.288 24.114 158.288C21.272 158.288 18.962 160.374 18.962 163.65C18.962 167.08 21.608 169.782 24.646 169.782C26.97 169.782 28.398 168.536 28.398 167.276C28.398 165.988 26.914 164.868 24.044 164.014C22.546 163.58 20.908 163.3 19.452 163.118ZM19.746 155.656H26.41V154.606H20.782V145.464H26.34V144.372H19.746V155.656ZM24.506 155.096H25.528V144.834H24.506V155.096ZM17.24 150.588H30.106V149.496H17.24V150.588ZM19.788 141.908L21.02 141.782C20.698 140.27 20.348 136.7 20.194 135.202C20.95 136.476 22.742 137.806 24.912 137.806C28.048 137.806 29.42 134.866 29.518 132.276L28.37 131.87C28.286 134.138 27.404 136.7 24.674 136.7C23.022 136.7 20.88 135.482 20.236 133.48C20.04 132.766 20.012 131.548 20.026 130.736L18.906 130.75C18.934 131.688 19.018 132.99 19.144 134.53C19.368 137.106 19.62 139.752 19.718 140.648C19.746 140.928 19.774 141.376 19.788 141.908ZM21.734 132.766L22.042 133.466C22.63 133.046 23.344 132.654 24.016 132.332L23.694 131.604C23.064 131.912 22.196 132.444 21.734 132.766ZM21.146 131.24L21.468 131.926C22.056 131.492 22.756 131.072 23.428 130.736L23.078 130.022C22.462 130.344 21.608 130.89 21.146 131.24ZM29.784 125.739L28.972 124.787C27.95 125.669 26.69 126.929 25.878 127.937L26.676 128.847C27.488 127.853 28.678 126.649 29.784 125.739ZM23.526 111.977H24.324V104.851H23.526V111.977ZM27.67 112.859H28.482V102.695H27.67V112.859ZM25.556 114.987H26.382V102.135H25.556V114.987ZM21.972 114.609H22.784V102.499H21.972V114.609ZM20.138 113.209H20.922V103.801H20.138V113.209ZM18.388 114.021H19.186V102.919H18.388V114.021ZM23.526 105.201H23.708C27.432 105.397 28.86 105.635 29.224 105.999C29.35 106.125 29.392 106.279 29.378 106.559C29.378 106.853 29.378 107.651 29.294 108.505C29.504 108.365 29.84 108.267 30.064 108.253C30.12 107.413 30.134 106.573 30.106 106.139C30.078 105.705 29.994 105.383 29.686 105.117C29.21 104.669 27.824 104.431 23.974 104.193C23.834 104.193 23.526 104.179 23.526 104.179V105.201ZM23.526 112.481C25.304 112.817 27.74 113.363 29.196 113.797L29.28 112.761C27.824 112.383 25.374 111.851 23.526 111.473V112.481ZM23.848 108.967C25.178 109.121 26.942 109.401 28.034 109.625V108.659C26.984 108.449 25.22 108.169 23.848 107.987V108.967ZM17.24 109.121H22.266V108.085H17.24V109.121ZM17.268 92.4325H19.858V91.4245H17.268V92.4325ZM19.298 95.3165H21.986V94.3645H20.222V89.3105H21.986V88.3445H19.298V95.3165ZM21.594 94.2525H28.258C29.518 94.2525 29.854 93.8745 29.854 92.5165C29.854 92.2085 29.854 90.2205 29.854 89.8985C29.854 88.6665 29.28 88.3585 27.278 88.2325C27.208 88.5125 27.04 88.9185 26.886 89.1425C28.58 89.2125 28.902 89.3245 28.902 89.9545C28.902 90.3885 28.902 92.0965 28.902 92.4325C28.902 93.1325 28.804 93.2585 28.258 93.2585H21.594V94.2525ZM22.644 89.5345C23.386 90.5705 24.226 92.3765 24.814 93.9585C25.052 93.8185 25.388 93.6505 25.612 93.5945C25.024 91.9705 24.268 90.0945 23.456 88.8205L22.644 89.5345ZM17.422 98.6485H20.39V97.7245H17.422V98.6485ZM19.872 99.9925H20.74V96.6605H24.03V99.9925H24.898V95.8345H19.872V99.9925ZM19.872 100.525H25.64L25.64 99.6985H19.872L19.872 100.525ZM20.236 98.5785H24.464V98.6485H28.258V97.7245H24.464V97.8085H20.236V98.5785ZM28.272 101.057L29.294 100.875C29.07 99.4885 28.748 97.6265 28.44 95.8345L27.53 95.8905C27.824 97.7945 28.118 99.7545 28.272 101.057ZM25.962 96.9965C27.068 96.5485 28.552 96.1145 29.504 95.9885L29.238 95.1345C28.286 95.2745 26.844 95.7365 25.724 96.1985L25.962 96.9965ZM20.726 81.9885L21.79 81.9745C21.846 81.1625 21.874 80.4345 21.874 79.6225C21.874 77.9845 21.762 76.2765 21.51 74.7925H20.432C20.726 76.2065 20.852 77.9285 20.852 79.6085C20.852 80.4345 20.81 81.1905 20.726 81.9885ZM18.22 77.0885V78.3485C18.472 78.3065 18.836 78.2925 19.088 78.2925C19.578 78.2925 20.46 78.2785 21.426 78.2785C23.274 78.2785 25.892 78.0965 26.9 78.0965C27.838 78.0965 28.426 78.4325 28.426 79.6085C28.426 80.6305 28.048 81.3165 27.32 81.3165C26.648 81.3165 26.186 80.5885 26.186 79.5385C26.186 77.7605 27.138 76.3465 28.51 74.8765L27.586 74.2745C26.522 75.4505 25.332 77.0885 25.332 79.4405C25.332 81.2885 26.256 82.3245 27.432 82.3245C28.692 82.3245 29.448 81.3025 29.448 79.4265C29.448 77.5365 28.328 77.0045 27.18 77.0045C25.738 77.0045 23.554 77.2145 21.398 77.2145C20.572 77.2145 19.578 77.2005 19.06 77.1725C18.794 77.1585 18.5 77.1305 18.22 77.0885ZM18.318 83.9905L18.206 85.2225C18.514 85.2365 18.878 85.2645 19.214 85.3205C20.362 85.4885 23.036 85.9645 25.094 85.9645C26.984 85.9645 28.524 85.6985 29.532 85.4325L29.448 84.4385C29.308 84.4525 29.098 84.4665 28.958 84.4805C28.804 84.4945 28.524 84.4665 28.328 84.4245C27.642 84.2845 26.214 83.7665 25.234 83.4165L24.786 83.9905C25.36 84.2285 26.214 84.5785 26.858 84.8025C26.172 84.9005 25.584 84.9425 24.898 84.9425C23.33 84.9425 20.558 84.5225 19.256 84.2425C19.004 84.1865 18.542 84.0745 18.318 83.9905ZM23.96 72.8325H24.898L24.898 60.3025H23.96L23.96 72.8325ZM19.872 69.7805H20.726L20.726 62.1085H19.872L19.872 69.7805ZM21.902 69.7805H22.756L22.756 62.1085H21.902L21.902 69.7805ZM29.056 72.1605L30.036 71.8945C29.742 70.2145 29.336 67.8065 28.93 65.5665L28.006 65.6085C28.398 68.0025 28.832 70.5505 29.056 72.1605ZM24.212 66.5045L24.464 67.4565C27.46 66.3225 29.378 64.1245 30.162 60.7365C29.868 60.5965 29.448 60.3025 29.238 60.0785C28.608 63.3125 26.844 65.5245 24.212 66.5045ZM25.024 61.7725C25.71 62.6405 26.62 64.1245 27.152 65.1885L27.712 64.4745C27.194 63.3825 26.382 61.9825 25.598 60.9325L25.024 61.7725ZM17.8 70.3545H24.352V69.2905H18.696L18.696 61.6605H17.8L17.8 70.3545ZM24.254 70.3685H29.196L29.07 69.2905H24.254V70.3685ZM19.242 56.4385L19.214 57.7965C19.536 57.7125 20.138 57.7125 20.46 57.7125C21.272 57.7125 22.98 57.6845 24.184 57.5585C27.81 57.1665 29.126 55.9065 29.126 54.5765C29.126 53.6245 28.314 52.7845 25.948 51.9305L24.954 52.8125C26.354 53.1765 27.796 53.8345 27.796 54.5485C27.796 55.5565 26.242 56.2285 23.904 56.4665C22.756 56.5645 21.468 56.5785 20.6 56.5645C20.236 56.5505 19.564 56.5085 19.242 56.4385ZM19.62 49.1585L19.998 50.2365C21.636 48.9065 24.52 48.0525 27.04 47.8145L26.592 46.6805C24.226 46.8905 21.244 47.8985 19.62 49.1585ZM23.778 42.3965H24.632V34.6965H23.778V42.3965ZM26.074 42.3965H26.914V34.6965H26.074V42.3965ZM28.384 42.3965H29.322V34.6545H28.384V42.3965ZM19.186 44.8185H20.166L20.166 32.2885H19.186L19.186 44.8185ZM21.468 43.2225H30.12V42.1725H22.392V34.9905H30.12V33.9125H21.468L21.468 43.2225ZM19.69 39.0785C20.348 39.1905 21.3 39.4285 21.93 39.6665L22.084 38.6445C21.482 38.3925 20.6 38.0565 19.774 37.7905L19.69 39.0785ZM17.226 35.7465C17.856 36.0685 18.738 36.6425 19.312 37.1185L19.606 36.2085C19.074 35.7045 18.29 35.0885 17.534 34.5845L17.226 35.7465ZM17.604 42.3825C18.136 41.8925 18.878 41.3325 19.368 41.0945L18.864 40.1145C18.388 40.3945 17.688 40.9405 17.198 41.4585L17.604 42.3825ZM19.788 30.4685L21.02 30.3425C20.698 28.8305 20.348 25.2605 20.194 23.7625C20.95 25.0365 22.742 26.3665 24.912 26.3665C28.048 26.3665 29.42 23.4265 29.518 20.8365L28.37 20.4305C28.286 22.6985 27.404 25.2605 24.674 25.2605C23.022 25.2605 20.88 24.0425 20.236 22.0405C20.04 21.3265 20.012 20.1085 20.026 19.2965L18.906 19.3105C18.934 20.2485 19.018 21.5505 19.144 23.0905C19.368 25.6665 19.62 28.3125 19.718 29.2085C19.746 29.4885 19.774 29.9365 19.788 30.4685ZM21.734 21.3265L22.042 22.0265C22.63 21.6065 23.344 21.2145 24.016 20.8925L23.694 20.1645C23.064 20.4725 22.196 21.0045 21.734 21.3265ZM21.146 19.8005L21.468 20.4865C22.056 20.0525 22.756 19.6325 23.428 19.2965L23.078 18.5825C22.462 18.9045 21.608 19.4505 21.146 19.8005ZM17.912 8.78255V10.0705C18.038 10.0425 18.43 10.0005 18.808 9.97255C19.578 9.93055 22.364 9.91655 22.98 9.91655L23.526 8.85255C22.406 8.86655 19.704 8.89455 18.794 8.85255C18.626 8.85255 18.08 8.81055 17.912 8.78255ZM19.872 16.2305L20.95 16.2025C20.796 14.0885 20.698 11.0925 20.698 8.68455C20.698 6.62655 20.726 5.36655 20.768 4.58255L19.732 4.56855C19.718 5.22655 19.718 6.96255 19.718 8.67055C19.718 10.8265 19.844 14.3265 19.872 16.2305ZM23.932 8.88055L23.54 9.65055C25.038 9.42655 25.766 9.98655 25.766 10.8545C25.766 11.6245 25.262 12.2825 24.38 12.2825C23.47 12.2825 22.896 11.5965 22.896 10.8545C22.896 10.0985 23.428 9.48255 24.688 9.48255C26.998 9.48255 28.244 10.9665 28.846 13.5145L29.756 12.5765C28.79 9.32855 26.69 8.40455 24.786 8.40455C23.176 8.40455 21.972 9.23055 21.972 10.8545C21.972 12.1845 23.008 13.3325 24.394 13.3325C25.92 13.3325 26.746 12.1985 26.746 11.0225C26.746 9.74855 25.808 8.88055 23.932 8.88055ZM25.598 2.23908C25.598 3.41508 26.55 4.38108 27.726 4.38108C28.902 4.38108 29.854 3.41508 29.854 2.23908C29.854 1.06308 28.902 0.111078 27.726 0.111078C26.55 0.111078 25.598 1.06308 25.598 2.23908ZM29.14 2.23908C29.14 3.02308 28.51 3.66708 27.726 3.66708C26.942 3.66708 26.312 3.02308 26.312 2.23908C26.312 1.45508 26.942 0.825078 27.726 0.825078C28.51 0.825078 29.14 1.45508 29.14 2.23908ZM40.33 282.09H41.394V269.91H40.33V282.09ZM36.368 281.138H37.446V270.694H36.368V281.138ZM40.61 275.622L40.834 276.602C44.138 275.566 46.21 273.564 47.078 270.162C46.784 270.008 46.336 269.7 46.098 269.462C45.398 272.738 43.494 274.74 40.61 275.622ZM34.24 276.616H38.594C41.422 276.616 44.46 277.19 46.196 282.454C46.42 282.23 46.882 281.922 47.134 281.796C45.23 276.168 41.842 275.51 38.594 275.51H34.24V276.616ZM36.452 261.118L36.424 262.28C37.88 262.42 39.462 262.714 40.792 263.12C43.158 263.834 44.11 264.59 44.11 265.248C44.11 265.878 43.326 266.676 41.562 266.676C39.504 266.676 36.97 264.758 36.97 261.678C36.97 258.99 38.818 257.436 41.058 257.436C43.48 257.436 44.824 259.2 45.23 260.992C45.3 261.328 45.356 261.748 45.398 262.196L46.434 261.552C46 258.22 44.04 256.288 41.114 256.288C38.272 256.288 35.962 258.374 35.962 261.65C35.962 265.08 38.608 267.782 41.646 267.782C43.97 267.782 45.398 266.536 45.398 265.276C45.398 263.988 43.914 262.868 41.044 262.014C39.546 261.58 37.908 261.3 36.452 261.118ZM38.426 252.074H39.42L39.42 243.968H38.426L38.426 252.074ZM41.744 252.074H42.738L42.738 243.968H41.744L41.744 252.074ZM45.076 252.074H46.098L46.098 243.968H45.076L45.076 252.074ZM35.108 252.802H47.05V251.752H36.144L36.144 244.388H47.05V243.296H35.108L35.108 252.802ZM40.736 236.842V231.074H41.73V236.842H40.736ZM42.402 236.842V231.074H43.41V236.842H42.402ZM39.07 236.842V231.074H40.05V236.842H39.07ZM38.37 237.808H44.124V230.052H38.37V237.808ZM43.872 236.058C45.3 236.366 45.916 237.248 46.224 240.398C46.448 240.202 46.896 239.95 47.134 239.852C46.686 236.422 45.776 235.358 43.872 234.98V236.058ZM43.844 233.048H45.734C46.756 233.048 47.05 232.712 47.05 231.382C47.05 231.116 47.05 229.422 47.05 229.128C47.05 228.05 46.658 227.742 44.95 227.616C44.894 227.91 44.74 228.344 44.572 228.568C45.93 228.61 46.098 228.708 46.098 229.226C46.098 229.618 46.098 231.004 46.098 231.284C46.098 231.9 46.042 231.998 45.72 231.998H43.844V233.048ZM36.48 239.782H39.294V238.816H37.362V229.114H39.294V228.106H36.48V239.782ZM34.352 230.15C35.01 230.514 35.948 231.172 36.522 231.69L36.886 230.85C36.34 230.304 35.5 229.632 34.73 229.072L34.352 230.15ZM34.884 238.872C35.402 238.368 36.158 237.822 36.648 237.57L36.172 236.632C35.696 236.898 34.982 237.486 34.464 237.99L34.884 238.872ZM34.576 235.302C35.164 234.868 35.976 234.42 36.494 234.252L36.13 233.314C35.612 233.496 34.828 233.958 34.254 234.392L34.576 235.302ZM35.164 217.634L35.052 218.852C35.374 218.838 35.836 218.88 36.116 218.936C38.16 219.286 40.722 220.224 42.15 221.148C43.284 221.862 44.474 222.842 44.474 223.752C44.474 224.382 43.914 224.788 42.99 224.788C41.73 224.788 40.232 224.032 39.378 222.842C38.566 221.75 38.104 220.532 38.104 219.174C38.104 216.92 39.616 215.436 41.674 215.436C43.844 215.436 45.37 217.046 45.636 219.972L46.63 219.328C46.21 216.318 44.516 214.316 41.716 214.316C38.986 214.316 37.138 216.304 37.138 219.048C37.138 220.49 37.502 221.862 38.44 223.248C39.434 224.732 41.296 225.81 43.06 225.81C44.698 225.81 45.58 224.914 45.58 223.85C45.58 222.576 44.53 221.554 43.046 220.49C41.506 219.37 38.58 218.39 36.27 217.886C36.004 217.816 35.514 217.732 35.164 217.634ZM35.808 223.374L36.172 224.536C36.536 224.354 36.998 224.2 37.446 224.06C39.196 223.528 41.338 222.716 42.43 222.03C43.34 221.498 44.026 220.98 44.642 220.42L43.928 219.538C43.284 220.21 42.36 220.868 41.548 221.344C40.568 221.932 38.412 222.716 37.04 223.08C36.648 223.192 36.186 223.304 35.808 223.374ZM37.726 207.428L38.79 207.414C38.846 206.602 38.874 205.874 38.874 205.062C38.874 203.424 38.762 201.716 38.51 200.232H37.432C37.726 201.646 37.852 203.368 37.852 205.048C37.852 205.874 37.81 206.63 37.726 207.428ZM35.22 202.528V203.788C35.472 203.746 35.836 203.732 36.088 203.732C36.578 203.732 37.46 203.718 38.426 203.718C40.274 203.718 42.892 203.536 43.9 203.536C44.838 203.536 45.426 203.872 45.426 205.048C45.426 206.07 45.048 206.756 44.32 206.756C43.648 206.756 43.186 206.028 43.186 204.978C43.186 203.2 44.138 201.786 45.51 200.316L44.586 199.714C43.522 200.89 42.332 202.528 42.332 204.88C42.332 206.728 43.256 207.764 44.432 207.764C45.692 207.764 46.448 206.742 46.448 204.866C46.448 202.976 45.328 202.444 44.18 202.444C42.738 202.444 40.554 202.654 38.398 202.654C37.572 202.654 36.578 202.64 36.06 202.612C35.794 202.598 35.5 202.57 35.22 202.528ZM35.318 209.43L35.206 210.662C35.514 210.676 35.878 210.704 36.214 210.76C37.362 210.928 40.036 211.404 42.094 211.404C43.984 211.404 45.524 211.138 46.532 210.872L46.448 209.878C46.308 209.892 46.098 209.906 45.958 209.92C45.804 209.934 45.524 209.906 45.328 209.864C44.642 209.724 43.214 209.206 42.234 208.856L41.786 209.43C42.36 209.668 43.214 210.018 43.858 210.242C43.172 210.34 42.584 210.382 41.898 210.382C40.33 210.382 37.558 209.962 36.256 209.682C36.004 209.626 35.542 209.514 35.318 209.43ZM36.368 192.994H46.994V191.972H36.368V192.994ZM34.968 197.516H35.92V189.326H34.968V197.516ZM40.218 198.328H41.184V189.214H40.218V198.328ZM37.796 196.298H40.344C42.346 196.298 44.642 196.494 46.448 198.538C46.602 198.286 46.924 197.922 47.148 197.754C45.174 195.542 42.612 195.304 40.358 195.304H37.796V196.298ZM34.618 186.876C35.08 187.142 35.766 187.66 36.2 188.052L36.578 187.408C36.2 186.988 35.626 186.47 35.08 185.98L34.618 186.876ZM36.83 189.032C37.278 188.15 37.95 187.044 38.44 186.498L37.768 185.882C37.306 186.442 36.648 187.562 36.242 188.43L36.83 189.032ZM40.904 186.82C41.366 187.1 42.066 187.66 42.486 188.052L42.864 187.422C42.486 186.988 41.912 186.428 41.366 185.924L40.904 186.82ZM43.116 189.018C43.564 188.08 44.264 186.932 44.754 186.358L44.082 185.728C43.592 186.33 42.934 187.506 42.514 188.416L43.116 189.018ZM36.438 194.772C37.18 195.626 37.838 197.18 38.258 198.524C38.44 198.328 38.874 198.02 39.07 197.908C38.566 196.508 37.712 194.856 36.788 193.862L36.438 194.772ZM34.968 189.998C37.768 189.774 40.33 189.256 40.624 186.806C40.736 186.12 40.288 185.742 39.14 185.574C39.028 185.784 38.79 186.036 38.58 186.232C39.308 186.288 39.714 186.4 39.686 186.596C39.56 188.332 37.362 188.878 34.968 189.018V189.998ZM40.218 189.858C43.732 189.732 46.826 189.382 47.12 186.722C47.274 185.98 46.742 185.616 45.314 185.448C45.202 185.658 44.964 185.924 44.726 186.12C45.664 186.19 46.196 186.316 46.168 186.498C46.014 188.402 43.312 188.794 40.218 188.864V189.858ZM35.612 177.342L35.108 178.588C35.528 178.756 35.864 178.938 36.2 179.092C37.544 179.862 43.284 182.928 46.112 183.95L46.532 182.746C45.846 182.55 44.18 181.962 43.354 181.528C42.248 180.996 41.1 179.932 41.1 178.812C41.1 178.182 41.478 177.818 42.08 177.79C42.85 177.748 43.928 177.762 44.754 177.72C45.58 177.678 46.518 177.188 46.518 175.69C46.518 173.66 44.95 172.484 42.696 171.742L41.94 172.68C43.438 173.03 45.37 173.954 45.37 175.522C45.37 176.124 45.062 176.6 44.362 176.642C43.676 176.698 42.612 176.67 41.786 176.698C40.68 176.74 40.078 177.412 40.078 178.35C40.078 179.022 40.344 179.75 40.946 180.422C39.588 179.708 37.264 178.42 36.298 177.79C36.032 177.636 35.78 177.468 35.612 177.342ZM35.192 165.232L35.08 166.562C35.374 166.534 35.85 166.562 36.242 166.618C36.984 166.716 38.734 167.08 40.022 167.43C41.996 167.948 44.852 168.928 46.294 169.782L46.7 168.55C45.174 167.808 42.276 166.87 40.288 166.366C38.902 165.974 37.306 165.68 36.298 165.484C36.032 165.428 35.5 165.316 35.192 165.232ZM37.53 168.326C37.53 168.844 37.516 169.348 37.432 170.006L38.51 169.978C38.552 169.46 38.566 168.97 38.566 168.354C38.566 166.842 38.342 164.728 37.95 162.992H36.844C37.292 164.728 37.53 166.786 37.53 168.326ZM39.462 163.902H40.498C40.4 163.048 40.358 162.194 40.358 161.312C40.358 160.486 40.428 159.674 40.512 158.946L39.448 158.918C39.364 159.674 39.336 160.528 39.336 161.34C39.336 162.25 39.392 163.174 39.462 163.902ZM42.864 163.622L42.752 164.658C43.354 164.784 43.872 164.868 44.404 164.868C45.79 164.868 46.476 163.664 46.476 161.466C46.476 160.444 46.378 159.506 46.28 158.75L45.146 158.708C45.314 159.576 45.426 160.542 45.426 161.452C45.426 163.44 44.782 163.818 44.124 163.818C43.76 163.818 43.312 163.734 42.864 163.622ZM35.626 160.444L35.934 161.186C36.466 160.808 37.32 160.318 37.88 160.038L37.544 159.282C36.984 159.576 36.116 160.08 35.626 160.444ZM35.052 158.89L35.374 159.632C35.906 159.24 36.69 158.764 37.306 158.47L36.97 157.714C36.438 157.98 35.57 158.512 35.052 158.89ZM42.598 154.708C42.598 155.884 43.55 156.85 44.726 156.85C45.902 156.85 46.854 155.884 46.854 154.708C46.854 153.532 45.902 152.58 44.726 152.58C43.55 152.58 42.598 153.532 42.598 154.708ZM46.14 154.708C46.14 155.492 45.51 156.136 44.726 156.136C43.942 156.136 43.312 155.492 43.312 154.708C43.312 153.924 43.942 153.294 44.726 153.294C45.51 153.294 46.14 153.924 46.14 154.708Z" fill="#EB4E4E"/>
</svg>
