<svg width="48" height="115" viewBox="0 0 48 115" fill="none" xmlns="http://www.w3.org/2000/svg">
<path d="M1.304 114.09H2.34L2.34 101.896H1.304L1.304 114.09ZM11.132 111.122H12.154V103.17H11.132V111.122ZM6.008 111.584H13.134V110.534H7.03L7.03 103.856H13.106V102.75H6.008L6.008 111.584ZM1.808 109.89C4.468 110.688 7.38 112.312 9.116 114.664C9.312 114.44 9.69 114.09 9.928 113.922C8.038 111.444 5 109.778 2.088 108.77L1.808 109.89ZM2.452 93.118L2.424 94.28C3.88 94.42 5.462 94.714 6.792 95.12C9.158 95.834 10.11 96.59 10.11 97.248C10.11 97.878 9.326 98.676 7.562 98.676C5.504 98.676 2.97 96.758 2.97 93.678C2.97 90.99 4.818 89.436 7.058 89.436C9.48 89.436 10.824 91.2 11.23 92.992C11.3 93.328 11.356 93.748 11.398 94.196L12.434 93.552C12 90.22 10.04 88.288 7.114 88.288C4.272 88.288 1.962 90.374 1.962 93.65C1.962 97.08 4.608 99.782 7.646 99.782C9.97 99.782 11.398 98.536 11.398 97.276C11.398 95.988 9.914 94.868 7.044 94.014C5.546 93.58 3.908 93.3 2.452 93.118ZM1.01 79.426L1.01 80.756C1.276 80.7 1.892 80.658 2.41 80.644C3.012 80.644 4.16 80.63 4.972 80.63C6.4 80.63 9.116 80.462 10.152 80.462C11.118 80.462 11.608 80.966 11.608 81.988C11.608 83.346 11.174 84.13 10.404 84.13C9.62 84.13 9.13 83.304 9.13 81.848C9.13 79.398 10.502 77.102 11.902 75.702L10.852 75.03C9.55 76.458 8.15 78.95 8.15 81.722C8.15 84.144 9.172 85.236 10.446 85.236C12.042 85.236 12.644 83.822 12.644 81.876C12.644 80.014 11.664 79.314 10.53 79.314C9.298 79.314 6.498 79.538 4.972 79.538C4.006 79.538 3.04 79.538 2.41 79.538C1.99 79.524 1.318 79.482 1.01 79.426ZM3.838 80.154H4.874C4.874 79.146 4.776 76.864 4.636 75.352L3.586 75.394C3.768 76.906 3.838 79.188 3.838 80.154ZM7.352 62.934C9.858 62.934 11.188 65.328 11.622 68.73L12.686 68.086C12.126 64.46 10.432 61.744 7.394 61.744C5.392 61.744 4.286 63.214 4.286 65.202C4.286 66.826 4.734 68.408 4.958 69.388C5.042 69.822 5.14 70.284 5.168 70.676L6.456 70.326C6.316 69.99 6.162 69.57 6.036 69.136C5.798 68.324 5.336 66.938 5.336 65.328C5.336 63.886 6.162 62.934 7.352 62.934ZM1.038 68.814L2.102 68.982C2.382 67.4 2.662 64.586 2.774 63.032L1.696 62.864C1.682 64.222 1.388 67.26 1.038 68.814ZM2.55 52.63L3.684 52.616C3.852 51.09 3.852 48.374 3.684 46.876H2.55C2.76 48.262 2.816 51.104 2.55 52.63ZM8.262 52.084L8.164 53.092C8.836 53.246 9.34 53.316 9.802 53.316C11.118 53.316 11.902 52.266 11.902 49.928C11.902 48.472 11.79 47.296 11.608 46.428L10.432 46.456C10.698 47.576 10.81 48.668 10.81 49.914C10.81 51.832 10.18 52.28 9.536 52.28C9.158 52.28 8.766 52.21 8.262 52.084ZM1.472 55.29L1.374 56.536C1.682 56.55 2.032 56.592 2.354 56.634C3.516 56.802 5.91 57.264 7.968 57.264C9.872 57.264 11.482 57.026 12.476 56.746L12.406 55.752C12.252 55.766 12.056 55.78 11.916 55.794C11.748 55.794 11.482 55.766 11.286 55.724C10.614 55.598 9.144 55.08 8.15 54.73L7.688 55.318C8.262 55.556 9.102 55.878 9.732 56.116C9.046 56.2 8.458 56.242 7.786 56.242C6.204 56.242 3.712 55.808 2.41 55.542C2.158 55.486 1.71 55.374 1.472 55.29ZM6.148 38.616H6.946L6.946 32.764H6.148L6.148 38.616ZM0.282 33.058C0.688 34.514 1.01 37.202 1.15 39.442C1.374 39.33 1.71 39.204 1.934 39.176C1.808 36.88 1.514 34.122 1.01 32.33L0.282 33.058ZM2.41 39.008C2.942 38.644 3.67 38.322 4.146 38.21L3.81 37.356C3.334 37.482 2.634 37.832 2.13 38.196L2.41 39.008ZM2.046 36.628C2.62 36.39 3.39 36.124 3.88 36.04L3.6 35.144C3.124 35.256 2.368 35.508 1.808 35.788L2.046 36.628ZM1.626 33.114C2.368 33.422 3.418 34.01 4.062 34.458L4.44 33.73C3.81 33.268 2.858 32.68 2.032 32.232L1.626 33.114ZM4.286 38.896H5.084L5.084 33.212H7.996L7.996 38.952H8.822V32.218H4.286L4.286 38.896ZM1.458 42.326H13.148V41.332H1.458V42.326ZM4.3 44.384H5.266V39.624H4.3V44.384ZM4.678 42.34C6.386 42.746 8.57 43.684 9.718 44.552C9.956 44.37 10.376 44.118 10.67 44.006C9.354 43.082 6.862 42.144 4.916 41.696L4.678 42.34ZM0.548 40.394C0.996 41.318 1.402 42.984 1.654 44.454C1.864 44.328 2.2 44.188 2.424 44.146C2.2 42.606 1.808 40.8 1.29 39.596L0.548 40.394ZM5.91 41.374L6.33 41.85C6.792 41.458 8.108 40.45 8.64 40.142L7.856 39.526C7.52 39.806 6.204 41.038 5.91 41.374ZM9.718 37.678H11.902C12.84 37.678 13.078 37.412 13.078 36.306C13.078 36.082 13.078 34.752 13.078 34.514C13.078 33.688 12.784 33.408 11.51 33.324C11.454 33.576 11.314 33.954 11.16 34.15C12.112 34.192 12.224 34.262 12.224 34.626C12.224 34.92 12.224 36.012 12.224 36.194C12.224 36.67 12.182 36.74 11.888 36.74H9.718V37.678ZM9.844 38.966C10.698 39.19 11.734 39.596 12.336 40.142L12.812 39.344C12.14 38.742 11.034 38.364 10.138 38.14L9.844 38.966ZM10.054 33.8C10.866 33.114 12 32.47 12.77 32.246L12.378 31.392C11.608 31.644 10.502 32.288 9.69 33.016L10.054 33.8ZM9.27 36.894C9.69 36.25 10.32 35.536 10.796 35.228L10.264 34.528C9.802 34.864 9.186 35.592 8.794 36.236L9.27 36.894ZM3.124 23.244L2.494 22.446C1.948 22.964 1.066 24.028 0.701999 24.49L1.276 25.288C1.724 24.7 2.578 23.776 3.124 23.244ZM1.906 27.696L2.368 28.83C2.648 28.606 3.096 28.326 3.376 28.158C4.174 27.682 5.532 27.052 7.002 26.394C8.836 25.596 11.076 24.924 12.742 24.49L12.42 23.286C10.866 23.762 8.276 24.658 6.526 25.414C5.252 25.988 3.838 26.66 2.858 27.206C2.592 27.346 2.144 27.584 1.906 27.696ZM5.994 30.174L7.142 29.628C6.372 27.864 3.95 23.72 3.95 21.382C3.95 20.01 4.72 19.352 5.546 19.352C6.54 19.352 7.394 19.982 7.394 21.522C7.394 22.264 7.184 22.964 6.932 23.51L8.038 23.538C8.234 23.02 8.43 22.222 8.43 21.438C8.43 19.254 7.212 18.232 5.588 18.232C4.062 18.232 2.97 19.408 2.97 21.354C2.97 23.678 4.874 27.08 5.616 29.026C5.728 29.278 5.896 29.768 5.994 30.174ZM1.08 10.882L0.954 12.17C2.032 12.17 3.292 12.366 4.398 12.618C6.12 12.996 9.858 14.116 11.986 15.712L12.448 14.578C9.886 12.996 6.4 11.988 4.44 11.512C3.572 11.33 2.424 11.134 1.92 11.05C1.64 10.994 1.346 10.938 1.08 10.882ZM2.578 6.052L3.04 7.074C4.188 6.094 6.666 5.002 8.108 4.582L7.59 3.504C6.288 3.966 3.712 5.184 2.578 6.052ZM4.16 15.922L5.364 15.796C5.308 15.446 5.238 14.858 5.196 14.536C5.112 13.682 4.804 11.064 4.804 10.126C4.804 9.23 5.042 8.642 6.316 8.642C7.828 8.642 9.662 8.852 10.6 9.3C11.216 9.594 11.328 10.014 11.328 10.532C11.328 10.924 11.216 11.652 11.034 12.24L12.21 12.058C12.308 11.61 12.406 10.952 12.406 10.406C12.406 9.51 12.182 8.81 11.244 8.362C10.082 7.788 7.856 7.564 6.19 7.564C4.286 7.564 3.81 8.586 3.81 9.832C3.81 10.784 4.132 13.626 4.16 14.662C4.174 15.11 4.174 15.474 4.16 15.922ZM13.9072 2.37793C13.3786 1.73079 12.8613 1.40723 12.3555 1.40723C11.9134 1.40723 11.5579 1.63965 11.2891 2.10449C11.0293 2.10449 10.8242 2.0293 10.6738 1.87891C10.5189 1.72396 10.4414 1.52344 10.4414 1.27734C10.4414 1.00846 10.5462 0.791992 10.7559 0.62793C10.9609 0.45931 11.223 0.375 11.542 0.375C12.0342 0.375 12.499 0.520833 12.9365 0.8125C13.374 1.09961 13.7979 1.53483 14.208 2.11816L13.9072 2.37793ZM17.674 108.728C19.536 108.826 26.27 108.826 29.182 114.538C29.42 114.216 29.742 113.866 30.008 113.684C26.858 107.888 19.872 107.678 17.674 107.566V108.728ZM17.954 107.608L18.052 108.616C19.34 108.518 27.166 108.126 30.008 102.19C29.714 102.022 29.364 101.7 29.126 101.392C26.48 107.16 19.046 107.566 17.954 107.608ZM25.052 100.258H25.99V94.294H25.052V100.258ZM19.746 100.258H20.6V94.378H19.746V100.258ZM17.534 95.414C18.038 95.596 18.78 95.932 19.256 96.212L19.522 95.512C19.088 95.204 18.444 94.854 17.814 94.518L17.534 95.414ZM17.394 97.794H23.582V96.87H17.394V97.794ZM17.856 100.02C18.374 99.67 19.06 99.348 19.522 99.236L19.186 98.452C18.752 98.564 18.08 98.914 17.576 99.278L17.856 100.02ZM27.082 97.78C27.712 96.884 28.636 95.722 29.182 95.148L28.468 94.462C27.936 95.064 27.054 96.24 26.466 97.122L27.082 97.78ZM20.754 96.912L21.244 97.444C21.622 96.842 22.728 95.358 23.204 94.854L22.434 94.294C22.14 94.686 21.02 96.408 20.754 96.912ZM20.194 97.878C21.23 98.438 22.336 99.516 22.868 100.51C23.022 100.314 23.344 100.02 23.554 99.88C22.924 98.872 21.664 97.752 20.474 97.164L20.194 97.878ZM17.898 94.294H18.822V87.644H17.898V94.294ZM23.092 92.866V89.072H24.436V92.866H23.092ZM25.22 92.866V89.072H26.606V92.866H25.22ZM20.964 92.866V89.072H22.308V92.866H20.964ZM20.138 93.818H27.432V88.078H20.138V93.818ZM18.346 91.522C18.99 91.634 19.942 91.858 20.558 92.068L20.754 91.172C20.166 90.92 19.298 90.626 18.486 90.374L18.346 91.522ZM27.684 92.53C28.3 93.09 29.014 94.238 29.42 95.26C29.602 95.022 29.924 94.728 30.12 94.56C29.7 93.524 28.944 92.334 28.23 91.62L27.684 92.53ZM28.286 90.5C28.818 89.674 29.616 88.624 30.12 88.134L29.546 87.322C29.028 87.854 28.272 88.904 27.754 89.73L28.286 90.5ZM23.89 97.822H25.318C26.55 97.822 28.02 98.074 29.084 100.524C29.28 100.342 29.644 100.062 29.882 99.95C28.664 97.206 26.886 96.856 25.332 96.856H23.89V97.822ZM20.726 81.428L21.79 81.414C21.846 80.602 21.874 79.874 21.874 79.062C21.874 77.424 21.762 75.716 21.51 74.232H20.432C20.726 75.646 20.852 77.368 20.852 79.048C20.852 79.874 20.81 80.63 20.726 81.428ZM18.22 76.528V77.788C18.472 77.746 18.836 77.732 19.088 77.732C19.578 77.732 20.46 77.718 21.426 77.718C23.274 77.718 25.892 77.536 26.9 77.536C27.838 77.536 28.426 77.872 28.426 79.048C28.426 80.07 28.048 80.756 27.32 80.756C26.648 80.756 26.186 80.028 26.186 78.978C26.186 77.2 27.138 75.786 28.51 74.316L27.586 73.714C26.522 74.89 25.332 76.528 25.332 78.88C25.332 80.728 26.256 81.764 27.432 81.764C28.692 81.764 29.448 80.742 29.448 78.866C29.448 76.976 28.328 76.444 27.18 76.444C25.738 76.444 23.554 76.654 21.398 76.654C20.572 76.654 19.578 76.64 19.06 76.612C18.794 76.598 18.5 76.57 18.22 76.528ZM18.318 83.43L18.206 84.662C18.514 84.676 18.878 84.704 19.214 84.76C20.362 84.928 23.036 85.404 25.094 85.404C26.984 85.404 28.524 85.138 29.532 84.872L29.448 83.878C29.308 83.892 29.098 83.906 28.958 83.92C28.804 83.934 28.524 83.906 28.328 83.864C27.642 83.724 26.214 83.206 25.234 82.856L24.786 83.43C25.36 83.668 26.214 84.018 26.858 84.242C26.172 84.34 25.584 84.382 24.898 84.382C23.33 84.382 20.558 83.962 19.256 83.682C19.004 83.626 18.542 83.514 18.318 83.43ZM22.056 64.642H30.134V63.578H22.056V64.642ZM24.114 68.73H25.08V59.644H24.114V68.73ZM24.492 63.284L24.8 64.096C26.662 63.172 28.552 61.548 29.532 60.022C29.28 59.84 28.902 59.504 28.706 59.28C27.866 60.806 26.172 62.444 24.492 63.284ZM24.422 64.88C26.13 65.762 27.866 67.484 28.678 69.122C28.888 68.898 29.252 68.576 29.504 68.394C28.538 66.728 26.662 64.992 24.73 64.054L24.422 64.88ZM18.85 66.686V61.464H21.412V66.686H18.85ZM17.912 67.68H22.364V60.428H17.912V67.68ZM17.282 69.136C19.41 69.948 21.496 71.292 22.826 72.692C23.078 72.496 23.624 72.202 23.862 72.09C22.308 70.564 19.956 69.094 17.59 68.142L17.282 69.136ZM20.894 70.592H30.092V69.584H19.914L19.9 69.598L20.894 70.592ZM25.934 53.512H26.746V46.974H25.934V53.512ZM25.934 47.254H26.088C28.02 48.346 29 51.286 29.336 54.198C29.546 54.03 29.91 53.834 30.162 53.75C29.7 50.642 28.608 47.576 26.214 46.26L25.892 46.876L25.934 47.058V47.254ZM26.634 51.538L26.97 52.406C28.622 51.132 29.7 48.724 30.12 46.078C29.882 45.952 29.504 45.686 29.294 45.476C28.958 48.052 28.02 50.446 26.634 51.538ZM18.108 53.75H18.92V45.714H18.108V53.75ZM21.986 52.35H22.602V46.4H21.986V52.35ZM23.274 52.35H23.904V46.4H23.274V52.35ZM17.24 51.706H19.69V50.754H17.24V51.706ZM20.894 49.914H25.08V48.99H20.894V49.914ZM17.24 48.64H19.69V47.688H17.24V48.64ZM19.438 52.224C20.488 52.672 21.524 53.442 22.21 54.268C22.336 54.058 22.63 53.694 22.784 53.554C22.014 52.728 20.838 51.888 19.662 51.37L19.438 52.224ZM19.48 49.508C19.886 49.648 20.488 49.928 20.894 50.152L21.09 49.34C20.74 49.102 20.222 48.822 19.69 48.556L19.48 49.508ZM20.586 46.064V52.77H25.332V45.742H24.604V51.832H21.314V46.064H20.586ZM21.482 57.894H22.322V54.296H21.482V57.894ZM17.744 57.81H18.584V54.338H17.744V57.81ZM23.358 57.894H24.198V54.296H23.358V57.894ZM19.578 58.468H20.446V53.946H19.578V58.468ZM25.248 57.404H26.116V55.192H28.454V57.404H29.322V54.31H25.248V57.404ZM25.248 57.922H29.98V57.054H25.248V57.922ZM18.094 40.24V41.668C18.5 41.584 18.99 41.542 19.508 41.542C20.978 41.542 24.52 41.682 26.592 41.682C28.888 41.682 29.714 40.296 29.714 38.28C29.714 35.214 27.964 33.394 26.634 32.442L25.682 33.226C27.138 34.234 28.566 35.69 28.566 38.252C28.566 39.582 28.034 40.548 26.494 40.548C24.408 40.548 21.09 40.436 19.508 40.38C19.046 40.352 18.556 40.31 18.094 40.24ZM17.898 22.992V24.182C18.08 24.14 18.5 24.126 18.738 24.126C19.718 24.126 21.188 24.126 22.448 24.126C23.68 24.126 26.368 23.986 27.446 23.986C28.426 23.986 28.664 24.672 28.664 25.484C28.664 26.87 28.188 27.416 27.53 27.416C26.886 27.416 26.368 26.702 26.368 25.358C26.368 22.866 27.768 20.794 28.93 19.534L27.936 18.89C27.054 19.968 25.458 22.278 25.458 25.232C25.458 27.248 26.312 28.466 27.586 28.466C28.944 28.466 29.658 27.36 29.658 25.344C29.658 23.524 28.664 22.88 27.684 22.88C26.746 22.88 24.296 23.09 22.448 23.09C21.272 23.09 19.396 23.09 18.836 23.062C18.416 23.048 18.136 23.02 17.898 22.992ZM19.41 28.34L20.446 28.326C20.558 27.444 20.684 25.722 20.684 24.756C20.684 22.88 20.502 20.878 20.32 19.296H19.298C19.592 21.116 19.718 22.992 19.718 24.77C19.718 25.694 19.578 27.444 19.41 28.34ZM22.392 28.41L23.442 28.396C23.554 27.402 23.624 25.862 23.624 24.896C23.624 22.796 23.526 21.088 23.288 19.184H22.238C22.504 21.004 22.644 22.866 22.644 24.896C22.644 25.82 22.546 27.416 22.392 28.41ZM17.912 8.222V9.51C18.038 9.482 18.43 9.44 18.808 9.412C19.578 9.37 22.364 9.356 22.98 9.356L23.526 8.292C22.406 8.306 19.704 8.334 18.794 8.292C18.626 8.292 18.08 8.25 17.912 8.222ZM19.872 15.67L20.95 15.642C20.796 13.528 20.698 10.532 20.698 8.124C20.698 6.066 20.726 4.806 20.768 4.022L19.732 4.008C19.718 4.666 19.718 6.402 19.718 8.11C19.718 10.266 19.844 13.766 19.872 15.67ZM23.932 8.32L23.54 9.09C25.038 8.866 25.766 9.426 25.766 10.294C25.766 11.064 25.262 11.722 24.38 11.722C23.47 11.722 22.896 11.036 22.896 10.294C22.896 9.538 23.428 8.922 24.688 8.922C26.998 8.922 28.244 10.406 28.846 12.954L29.756 12.016C28.79 8.768 26.69 7.844 24.786 7.844C23.176 7.844 21.972 8.67 21.972 10.294C21.972 11.624 23.008 12.772 24.394 12.772C25.92 12.772 26.746 11.638 26.746 10.462C26.746 9.188 25.808 8.32 23.932 8.32ZM38.58 107.412L38.818 108.406C42.78 107.384 45.72 105.522 47.12 102.26C46.812 102.092 46.35 101.728 46.126 101.462C44.95 104.626 42.15 106.516 38.58 107.412ZM38.356 114.258H39.434V101.742H38.356V114.258ZM34.254 108.56C38.16 108.602 43.774 108.462 46.196 114.426C46.42 114.132 46.812 113.782 47.106 113.614C44.446 107.482 38.496 107.482 34.254 107.44V108.56ZM35.248 106.236C35.934 105.228 36.942 104.024 37.614 103.478L36.914 102.694C36.228 103.282 35.262 104.514 34.618 105.508L35.248 106.236ZM36.452 93.118L36.424 94.28C37.88 94.42 39.462 94.714 40.792 95.12C43.158 95.834 44.11 96.59 44.11 97.248C44.11 97.878 43.326 98.676 41.562 98.676C39.504 98.676 36.97 96.758 36.97 93.678C36.97 90.99 38.818 89.436 41.058 89.436C43.48 89.436 44.824 91.2 45.23 92.992C45.3 93.328 45.356 93.748 45.398 94.196L46.434 93.552C46 90.22 44.04 88.288 41.114 88.288C38.272 88.288 35.962 90.374 35.962 93.65C35.962 97.08 38.608 99.782 41.646 99.782C43.97 99.782 45.398 98.536 45.398 97.276C45.398 95.988 43.914 94.868 41.044 94.014C39.546 93.58 37.908 93.3 36.452 93.118ZM34.282 84.452H47.106V83.5H34.282V84.452ZM38.944 86.44H39.938V81.932H38.944V86.44ZM39.462 84.508C41.086 84.886 43.214 85.768 44.306 86.594C44.6 86.412 45.062 86.146 45.384 86.034C44.096 85.152 41.632 84.284 39.756 83.85L39.462 84.508ZM40.204 83.528L40.61 84.046C41.212 83.654 42.948 82.674 43.676 82.38L42.864 81.68C42.416 81.946 40.61 83.178 40.204 83.528ZM35.332 86.286C36.298 85.922 37.586 85.6 38.412 85.516L38.216 84.746C37.39 84.844 36.13 85.166 35.15 85.572L35.332 86.286ZM35.094 82.408C36.046 82.604 37.418 82.996 38.244 83.304L38.454 82.66C37.67 82.296 36.354 81.876 35.318 81.526L35.094 82.408ZM35.388 81.05H36.186V73.924H35.388V81.05ZM37.054 80.7H37.824V74.232H37.054V80.7ZM38.776 81.442H39.588V73.574H38.776V81.442ZM34.254 78.11H39.224V77.102H34.254V78.11ZM40.442 80.56H47.106V79.566H41.24V75.17H40.442V80.56ZM40.442 75.492H46.042C46.196 75.492 46.252 75.534 46.252 75.716C46.252 75.898 46.252 76.472 46.238 77.102C46.49 76.976 46.854 76.85 47.106 76.794C47.106 75.926 47.106 75.338 46.966 74.974C46.812 74.596 46.546 74.498 46.042 74.498H40.442V75.492ZM42.276 80.028H43.032V75.086H42.276V80.028ZM44.082 80.028H44.838V75.086H44.082V80.028ZM39.434 66.476H40.358V60.344H39.434V66.476ZM42.206 66.504H43.158V60.19H42.206V66.504ZM34.24 63.998H47.12V62.99H34.24V63.998ZM36.676 67.008H43.76V66.028H37.628V60.848H43.69V59.854H36.676V67.008ZM36.872 72.23H37.838V68.002H36.872V72.23ZM34.254 70.312H37.348V69.29H34.254V70.312ZM40.05 69.178L40.582 69.78C41.016 69.332 42.164 68.226 42.682 67.82L41.828 67.204C41.52 67.512 40.33 68.8 40.05 69.178ZM36.872 68.38H37.096C39.21 69.164 41.338 70.998 42.472 72.748C42.654 72.566 43.144 72.3 43.41 72.202C42.108 70.34 39.756 68.352 37.208 67.386L36.83 67.974L36.872 68.156V68.38ZM41.086 70.312H47.106V69.29H39.826L41.086 70.312Z" fill="#EB4E4E"/>
</svg>
