<svg width="65" height="265" viewBox="0 0 65 265" fill="none" xmlns="http://www.w3.org/2000/svg">
<path d="M3.32 261.346C4.762 262.116 6.204 263.362 7.128 264.566C7.38 264.384 7.926 264.076 8.15 263.978C7.058 262.69 5.35 261.304 3.684 260.408L3.32 261.346ZM0.282 261.612C1.262 262.186 2.438 263.348 3.166 264.412C3.362 264.244 3.782 263.978 4.02 263.852C3.18 262.662 1.878 261.388 0.659999 260.604L0.282 261.612ZM5.938 262.606H13.12V261.584H4.986L4.958 261.612L5.938 262.606ZM2.312 259.176H3.292L3.292 252.68H2.312L2.312 259.176ZM2.312 252.988H2.466C3.334 253.184 4.412 253.478 5.07 253.73L5.294 252.806C4.58 252.512 3.446 252.162 2.452 251.896L2.27 252.652L2.312 252.82V252.988ZM0.253999 256.502H6.274V255.48H0.253999L0.253999 256.502ZM2.312 259.736H5.994C7.912 259.736 10.53 259.862 12.378 261.22C12.49 261.01 12.84 260.59 13.036 260.436C11.062 258.952 8.08 258.728 6.008 258.728H2.312V259.736ZM5.742 259.078H6.68L6.68 253.394H5.742L5.742 259.078ZM5.742 253.576H5.924C9.214 254.402 11.37 256.81 12.266 259.526C12.462 259.316 12.868 259.05 13.106 258.938C12.028 255.998 9.802 253.506 5.952 252.54L5.7 253.198L5.742 253.394V253.576ZM6.288 257.734L6.526 258.63C9.76 257.552 12.084 255.48 13.092 252.316C12.812 252.176 12.406 251.868 12.196 251.644C11.342 254.71 9.186 256.768 6.288 257.734ZM2.452 243.118L2.424 244.28C3.88 244.42 5.462 244.714 6.792 245.12C9.158 245.834 10.11 246.59 10.11 247.248C10.11 247.878 9.326 248.676 7.562 248.676C5.504 248.676 2.97 246.758 2.97 243.678C2.97 240.99 4.818 239.436 7.058 239.436C9.48 239.436 10.824 241.2 11.23 242.992C11.3 243.328 11.356 243.748 11.398 244.196L12.434 243.552C12 240.22 10.04 238.288 7.114 238.288C4.272 238.288 1.962 240.374 1.962 243.65C1.962 247.08 4.608 249.782 7.646 249.782C9.97 249.782 11.398 248.536 11.398 247.276C11.398 245.988 9.914 244.868 7.044 244.014C5.546 243.58 3.908 243.3 2.452 243.118ZM5.952 231.708L6.232 232.618C9.928 231.204 12.224 228.516 13.12 224.26C12.826 224.12 12.392 223.826 12.168 223.588C11.412 227.76 9.27 230.476 5.952 231.708ZM5.462 226.542H5.658C9.326 227.564 11.398 230.518 12.238 233.864C12.448 233.64 12.854 233.388 13.134 233.262C12.098 229.664 9.956 226.612 5.728 225.436L5.406 226.15L5.462 226.346V226.542ZM2.578 236.034H3.6L3.6 223.938H2.578L2.578 236.034ZM5.462 232.282L6.484 232.576L6.484 226.43H5.462L5.462 232.282ZM0.24 232.282C1.514 232.352 8.738 232.478 11.944 236.51C12.14 236.174 12.406 235.81 12.672 235.6C9.186 231.54 1.85 231.302 0.24 231.204L0.24 232.282ZM0.674 216.728C2.536 216.826 9.27 216.826 12.182 222.538C12.42 222.216 12.742 221.866 13.008 221.684C9.858 215.888 2.872 215.678 0.674 215.566V216.728ZM0.954 215.608L1.052 216.616C2.34 216.518 10.166 216.126 13.008 210.19C12.714 210.022 12.364 209.7 12.126 209.392C9.48 215.16 2.046 215.566 0.954 215.608ZM0.94 202.56L0.841999 203.708C1.5 203.75 2.34 203.946 3.11 204.254C4.3 204.73 5.924 205.668 7.856 207.684L8.57 206.718C7.996 206.256 7.492 205.864 7.1 205.458C6.526 204.814 6.078 203.932 6.078 203.036C6.078 202.308 6.456 201.748 7.268 201.734C7.996 201.72 9.438 201.734 10.18 201.79V200.712C9.312 200.726 7.702 200.754 6.974 200.754C5.84 200.754 5.196 201.594 5.196 202.672C5.196 203.288 5.392 204.086 5.714 204.632C4.986 204.072 4.048 203.554 3.194 203.204C2.256 202.84 1.486 202.686 0.94 202.56ZM2.452 207.362H3.502C3.558 206.578 3.586 205.654 3.586 205.052C3.586 203.274 3.46 200.67 3.166 198.71H2.13C2.48 200.684 2.592 203.106 2.592 204.996C2.592 205.64 2.55 206.606 2.452 207.362ZM5.826 196.666L4.79 197.114C4.986 197.506 5.14 197.856 5.336 198.276C5.77 199.2 6.204 200.334 6.89 201.664C7.744 203.33 8.794 205.066 10.502 205.066C12.196 205.066 12.63 203.456 12.63 201.468C12.63 200.25 12.518 198.696 12.392 197.632L11.258 197.59C11.482 198.822 11.608 200.334 11.608 201.426C11.608 202.868 11.44 203.946 10.348 203.946C9.382 203.946 8.626 202.966 7.898 201.58C7.198 200.222 6.666 198.892 6.274 197.898C6.134 197.52 5.938 197.016 5.826 196.666ZM6.428 188.392H7.394L7.394 183.058H6.428L6.428 188.392ZM0.827999 187.16H1.766L1.766 183.87H0.827999L0.827999 187.16ZM6.428 183.31H6.61C9.606 184.136 11.468 186.558 12.224 189.33C12.448 189.106 12.882 188.854 13.148 188.756C12.196 185.76 10.222 183.24 6.652 182.246L6.386 182.918L6.428 183.1V183.31ZM7.338 186.95L7.604 187.888C10.348 186.866 12.252 184.948 13.106 182.148C12.826 181.994 12.406 181.7 12.182 181.448C11.468 184.136 9.746 186.054 7.338 186.95ZM0.827999 187.636H2.844C3.782 187.636 4.832 187.79 5.602 189.008C5.742 188.798 6.12 188.42 6.316 188.28C5.42 186.922 4.034 186.656 2.872 186.656H0.827999V187.636ZM0.827999 184.458H4.23C5.042 184.458 5.28 184.374 5.448 184.178C5.63 183.968 5.7 183.646 5.7 183.366C5.7 183.212 5.7 182.862 5.7 182.666C5.7 182.442 5.658 182.162 5.574 181.994C5.49 181.798 5.336 181.658 5.098 181.574C4.86 181.49 4.216 181.448 3.642 181.42C3.558 181.7 3.376 182.05 3.194 182.246C3.796 182.26 4.258 182.274 4.468 182.302C4.65 182.344 4.762 182.4 4.79 182.456C4.832 182.512 4.846 182.638 4.846 182.764C4.846 182.876 4.846 183.058 4.846 183.156C4.846 183.268 4.832 183.338 4.79 183.38C4.748 183.45 4.566 183.464 4.286 183.464H0.827999L0.827999 184.458ZM6.596 194.286H7.562V188.826H6.596V194.286ZM4.846 191.892H13.134V190.898H4.846V191.892ZM0.24 190.072C2.228 190.996 3.936 192.662 4.972 194.552C5.14 194.314 5.532 193.908 5.742 193.754C4.566 191.878 2.732 190.114 0.548 189.078L0.24 190.072ZM7.968 190.968L8.416 191.556C8.892 191.024 10.194 189.75 10.74 189.316L9.998 188.644C9.634 188.994 8.29 190.534 7.968 190.968ZM1.598 194.09C2.522 192.34 3.936 190.254 4.972 189.26L4.202 188.56C3.166 189.596 1.794 191.71 0.94 193.446L1.598 194.09ZM7.17 191.92C8.64 192.48 10.278 193.572 11.062 194.622C11.244 194.398 11.58 194.062 11.818 193.894C10.894 192.844 9.088 191.752 7.436 191.15L7.17 191.92ZM1.094 176.24V177.668C1.5 177.584 1.99 177.542 2.508 177.542C3.978 177.542 7.52 177.682 9.592 177.682C11.888 177.682 12.714 176.296 12.714 174.28C12.714 171.214 10.964 169.394 9.634 168.442L8.682 169.226C10.138 170.234 11.566 171.69 11.566 174.252C11.566 175.582 11.034 176.548 9.494 176.548C7.408 176.548 4.09 176.436 2.508 176.38C2.046 176.352 1.556 176.31 1.094 176.24ZM0.996 160.812L0.884 162.142C1.178 162.114 1.654 162.142 2.046 162.198C2.774 162.296 4.538 162.66 5.826 162.996C7.8 163.528 10.642 164.508 12.098 165.348L12.504 164.13C10.978 163.388 8.08 162.45 6.092 161.946C4.692 161.554 3.11 161.26 2.102 161.05C1.836 160.994 1.304 160.896 0.996 160.812ZM3.334 163.906C3.334 164.424 3.306 164.928 3.222 165.586L4.314 165.558C4.356 165.04 4.37 164.55 4.37 163.934C4.37 162.422 4.132 160.308 3.74 158.572H2.648C3.082 160.308 3.334 162.366 3.334 163.906ZM5.252 159.482H6.302C6.204 158.628 6.148 157.76 6.148 156.892C6.148 156.066 6.232 155.254 6.316 154.526L5.252 154.498C5.168 155.254 5.14 156.108 5.14 156.92C5.14 157.816 5.182 158.754 5.252 159.482ZM8.654 159.202L8.556 160.238C9.144 160.364 9.676 160.448 10.208 160.448C11.594 160.448 12.266 159.244 12.266 157.046C12.266 156.024 12.182 155.086 12.07 154.33L10.95 154.288C11.118 155.156 11.216 156.108 11.216 157.032C11.216 159.02 10.572 159.398 9.914 159.398C9.55 159.398 9.116 159.314 8.654 159.202ZM1.15 151.768H2.158L2.158 141.212H1.15L1.15 151.768ZM3.628 151.684H4.566V143.242H3.628L3.628 151.684ZM1.15 141.632H11.552C11.818 141.632 11.888 141.716 11.902 141.982C11.916 142.276 11.916 143.228 11.888 144.208C12.196 144.04 12.714 143.886 13.036 143.83C13.036 142.584 13.022 141.702 12.84 141.212C12.644 140.722 12.28 140.582 11.552 140.582H1.15V141.632ZM6.078 150.788H11.594V149.766H6.078V150.788ZM6.078 149.948H7.016V145.244H9.634V149.948H10.558V144.208H6.078V149.948ZM0.253999 135.444C1.416 136.018 2.844 137.138 3.88 138.706C4.02 138.482 4.342 138.16 4.566 138.006C3.376 136.326 1.85 135.178 0.436 134.422L0.253999 135.444ZM1.164 135.626L1.934 136.074V132.728H1.164V135.626ZM1.164 132.98H1.346C4.188 133.806 6.246 136.116 7.072 138.566C7.268 138.356 7.66 138.104 7.912 137.992C6.876 135.36 4.748 132.938 1.388 131.972L1.122 132.616L1.164 132.784V132.98ZM2.648 136.438C3.068 135.64 3.712 134.646 4.104 134.142L3.544 133.638C3.138 134.156 2.536 135.15 2.144 135.948L2.648 136.438ZM10.138 129.718C10.95 128.668 12.14 127.408 12.91 126.834L12.322 125.938C11.538 126.554 10.39 127.814 9.62 128.85L10.138 129.718ZM3.964 137.656C4.454 136.886 5.168 135.934 5.63 135.458L5.084 134.842C4.636 135.346 3.95 136.312 3.474 137.082L3.964 137.656ZM1.15 130.194H2.046V126.736H1.15L1.15 130.194ZM5.504 134.534H6.456V129.102H5.504V134.534ZM7.996 137.306H8.962L8.962 126.512H7.996L7.996 137.306ZM1.15 127.002H1.374C2.41 127.464 3.782 128.444 4.58 129.41C4.72 129.214 5.028 128.906 5.238 128.752C4.328 127.674 2.886 126.554 1.542 125.882L1.094 126.568L1.15 126.764V127.002ZM0.422 131.02L0.631999 131.944C4.09 130.964 6.526 129.074 7.674 125.994C7.394 125.84 6.988 125.546 6.792 125.322C5.826 128.276 3.53 130.152 0.422 131.02ZM8.444 132.504H11.972C12.154 132.504 12.21 132.56 12.21 132.798C12.224 133.036 12.224 133.806 12.196 134.674C12.476 134.534 12.868 134.366 13.148 134.31C13.148 133.218 13.148 132.49 12.994 132.042C12.854 131.566 12.574 131.454 12 131.454H8.444V132.504ZM9.592 135.598C10.586 136.186 11.51 137.222 12.126 138.258C12.28 138.006 12.616 137.586 12.812 137.39C12.126 136.354 11.034 135.248 9.9 134.562L9.592 135.598ZM13.9072 124.378C13.3786 123.731 12.8613 123.407 12.3555 123.407C11.9134 123.407 11.5579 123.64 11.2891 124.104C11.0293 124.104 10.8242 124.029 10.6738 123.879C10.5189 123.724 10.4414 123.523 10.4414 123.277C10.4414 123.008 10.5462 122.792 10.7559 122.628C10.9609 122.459 11.223 122.375 11.542 122.375C12.0342 122.375 12.499 122.521 12.9365 122.812C13.374 123.1 13.7979 123.535 14.208 124.118L13.9072 124.378ZM18.164 258.056C19.746 256.698 21.412 254.22 22.35 252.12C22.056 251.938 21.678 251.686 21.426 251.448C20.6 253.632 18.99 256.068 17.226 257.594V258.644C18.794 259.778 20.558 262.13 21.58 264.51C21.818 264.286 22.196 264.02 22.434 263.894C21.356 261.57 19.648 259.26 18.164 258.056ZM23.134 261.374H23.946V254.668H23.134V261.374ZM19.704 258.588H21.608V257.51H19.704V258.588ZM29.014 263.586L30.008 263.446C29.854 261.836 29.63 259.526 29.406 257.328L28.454 257.342C28.678 259.652 28.888 262.032 29.014 263.586ZM25.64 257.944L25.92 258.84C28.23 257.664 29.588 255.382 30.134 252.302C29.854 252.162 29.434 251.882 29.21 251.658C28.79 254.64 27.614 256.908 25.64 257.944ZM25.416 253.212C26.116 254.122 27.054 255.662 27.6 256.796L28.174 256.124C27.628 254.976 26.816 253.534 26.032 252.428L25.416 253.212ZM21.104 261.374H21.958V255.046H25.192V261.374H26.046V253.996H21.104V261.374ZM21.104 262.004H29.252L29.14 260.968H21.104V262.004ZM25.43 250.356L26.494 249.32C26.186 249.11 25.738 248.788 25.374 248.508C24.506 247.78 22.966 246.632 22.154 245.974C21.566 245.484 21.454 245.218 22.112 244.63C22.826 243.972 24.17 242.908 25.206 241.998C26.298 241.032 27.754 239.772 28.748 238.722L27.74 237.812C26.62 239.072 25.15 240.472 24.212 241.312C23.26 242.208 21.874 243.286 21.02 244.126C20.068 245.05 20.208 245.778 21.16 246.59C22.154 247.43 23.75 248.592 24.506 249.348C24.898 249.712 25.164 250.006 25.43 250.356ZM19.55 241.312L19.9 242.124C20.544 241.648 21.426 241.158 22.168 240.822L21.79 239.982C21.118 240.318 20.082 240.962 19.55 241.312ZM18.85 239.506L19.214 240.29C19.83 239.828 20.698 239.324 21.426 238.946L21.034 238.134C20.39 238.47 19.34 239.142 18.85 239.506ZM17.24 229.524C19.368 230 21.384 230.826 22.644 232.002C22.784 231.778 23.092 231.358 23.246 231.19C21.86 230.014 19.732 229.09 17.436 228.572L17.24 229.524ZM19.592 224.694H19.844C25.99 224.988 28.216 225.31 28.748 225.772C28.93 225.94 28.986 226.08 28.986 226.304C28.986 226.57 28.972 227.144 28.916 227.774C29.196 227.606 29.644 227.508 29.952 227.48C29.994 226.864 30.008 226.248 29.952 225.884C29.91 225.45 29.784 225.184 29.406 224.904C28.72 224.33 26.522 224.036 20.138 223.714C19.984 223.7 19.592 223.7 19.592 223.7V224.694ZM19.592 229.622L20.586 230.07V224.274H19.592V229.622ZM19.9 228.208C22.35 228.782 25.066 230.126 26.354 231.764C26.508 231.484 26.76 231.148 26.97 230.938C25.584 229.342 22.784 228.012 20.306 227.41L19.9 228.208ZM19.984 226.206C23.708 226.878 27.502 228.432 29.252 230.882C29.406 230.574 29.672 230.196 29.896 229.986C28.006 227.634 24.142 226.066 20.376 225.366L19.984 226.206ZM25.01 236.51L26.032 236.23C25.584 234.816 24.996 232.926 24.436 231.148L23.512 231.288C24.086 233.192 24.674 235.194 25.01 236.51ZM17.254 233.892H30.12V232.912H17.254V233.892ZM18.052 235.628C19.774 235.796 21.552 236.076 22.742 236.608C22.84 236.384 23.078 235.978 23.204 235.81C21.958 235.278 20.068 234.928 18.206 234.718L18.052 235.628ZM20.11 235.544L21.132 235.712V231.47H20.11V235.544ZM19.452 215.118L19.424 216.28C20.88 216.42 22.462 216.714 23.792 217.12C26.158 217.834 27.11 218.59 27.11 219.248C27.11 219.878 26.326 220.676 24.562 220.676C22.504 220.676 19.97 218.758 19.97 215.678C19.97 212.99 21.818 211.436 24.058 211.436C26.48 211.436 27.824 213.2 28.23 214.992C28.3 215.328 28.356 215.748 28.398 216.196L29.434 215.552C29 212.22 27.04 210.288 24.114 210.288C21.272 210.288 18.962 212.374 18.962 215.65C18.962 219.08 21.608 221.782 24.646 221.782C26.97 221.782 28.398 220.536 28.398 219.276C28.398 217.988 26.914 216.868 24.044 216.014C22.546 215.58 20.908 215.3 19.452 215.118ZM22.966 208.384H24.114V195.574H22.966V208.384ZM18.08 186.6H30.134V185.578H19.074V182.4H18.08V186.6ZM18.794 194.062H19.732V187.37H18.794V194.062ZM22.672 194.426H23.638V187.188H22.672V194.426ZM17.296 191.248H19.368V190.226H17.296V191.248ZM20.222 193.194C20.936 192.9 21.888 192.662 22.504 192.592L22.28 191.654C21.664 191.738 20.726 192.004 20.026 192.312L20.222 193.194ZM19.928 189.176C20.642 189.344 21.678 189.68 22.322 189.96L22.546 189.12C21.93 188.812 20.992 188.476 20.166 188.168L19.928 189.176ZM28.384 193.11H29.322V188.504H28.384V193.11ZM24.856 193.488H30.134V192.508H25.794V188.98H30.064V187.972H24.856V193.488ZM18.08 182.68H18.416C19.522 183.1 21.454 183.856 22.896 184.57C24.128 183.156 25.178 182.75 26.06 182.736C26.578 182.736 26.984 182.834 27.166 183.142C27.264 183.31 27.32 183.506 27.334 183.744C27.348 184.024 27.334 184.43 27.306 184.836C27.6 184.654 28.048 184.556 28.342 184.542C28.356 184.136 28.37 183.674 28.328 183.324C28.272 182.96 28.174 182.652 28.02 182.4C27.684 181.91 27.026 181.714 26.172 181.714C25.164 181.728 24.058 182.064 22.756 183.478C21.468 182.834 19.844 182.106 18.528 181.532L18.038 182.302L18.08 182.47V182.68ZM17.94 174.56L17.842 175.708C18.5 175.75 19.34 175.946 20.11 176.254C21.3 176.73 22.924 177.668 24.856 179.684L25.57 178.718C24.996 178.256 24.492 177.864 24.1 177.458C23.526 176.814 23.078 175.932 23.078 175.036C23.078 174.308 23.456 173.748 24.268 173.734C24.996 173.72 26.438 173.734 27.18 173.79V172.712C26.312 172.726 24.702 172.754 23.974 172.754C22.84 172.754 22.196 173.594 22.196 174.672C22.196 175.288 22.392 176.086 22.714 176.632C21.986 176.072 21.048 175.554 20.194 175.204C19.256 174.84 18.486 174.686 17.94 174.56ZM19.452 179.362H20.502C20.558 178.578 20.586 177.654 20.586 177.052C20.586 175.274 20.46 172.67 20.166 170.71H19.13C19.48 172.684 19.592 175.106 19.592 176.996C19.592 177.64 19.55 178.606 19.452 179.362ZM22.826 168.666L21.79 169.114C21.986 169.506 22.14 169.856 22.336 170.276C22.77 171.2 23.204 172.334 23.89 173.664C24.744 175.33 25.794 177.066 27.502 177.066C29.196 177.066 29.63 175.456 29.63 173.468C29.63 172.25 29.518 170.696 29.392 169.632L28.258 169.59C28.482 170.822 28.608 172.334 28.608 173.426C28.608 174.868 28.44 175.946 27.348 175.946C26.382 175.946 25.626 174.966 24.898 173.58C24.198 172.222 23.666 170.892 23.274 169.898C23.134 169.52 22.938 169.016 22.826 168.666ZM22.952 159.146C24.394 159.958 25.682 161.428 26.494 162.94C26.676 162.716 27.082 162.366 27.278 162.226C26.34 160.686 24.898 159.132 23.246 158.194L22.952 159.146ZM17.24 159.062C18.01 159.566 19.06 160.462 19.718 161.148L20.152 160.406C19.522 159.706 18.57 158.838 17.716 158.138L17.24 159.062ZM18.318 156.36C19.76 157.508 21.678 159.482 22.854 161.008L23.316 160.294C22.168 158.754 20.348 156.808 18.836 155.408L18.318 156.36ZM19.508 162.31C20.222 161.218 21.286 159.944 21.986 159.342L21.23 158.67C20.516 159.286 19.522 160.602 18.836 161.666L19.508 162.31ZM21.174 156.528C22.126 155.646 23.442 154.68 24.282 154.274L23.764 153.378C22.924 153.826 21.636 154.82 20.726 155.716L21.174 156.528ZM22.56 162.772L23.512 162.688C23.456 160.602 23.358 157.522 23.26 154.582L22.392 154.54C22.476 157.578 22.532 160.77 22.56 162.772ZM25.122 160.056L25.416 160.91C27.796 159.552 29.448 157.046 30.148 154.022C29.868 153.882 29.476 153.602 29.252 153.378C28.678 156.346 27.166 158.852 25.122 160.056ZM24.52 159.734L25.36 160.462V155.562H24.52V159.734ZM24.52 155.898H24.688C27.152 157.004 28.692 159.986 29.266 162.982C29.476 162.786 29.896 162.548 30.162 162.45C29.434 159.258 27.796 156.15 24.8 154.848L24.478 155.52L24.52 155.702V155.898ZM20.096 163.262C21.58 164.088 23.05 165.418 24.002 166.72C24.226 166.524 24.716 166.216 24.94 166.118C23.82 164.746 22.126 163.276 20.446 162.31L20.096 163.262ZM17.254 163.584C18.248 164.2 19.438 165.46 20.18 166.552C20.376 166.37 20.74 166.104 20.95 165.964C20.11 164.774 18.794 163.458 17.618 162.646L17.254 163.584ZM22.7 164.522H30.176V163.528H21.916L21.846 163.668L22.7 164.522ZM21.286 146.84C23.582 147.022 26.76 147.4 28.636 147.708L28.692 146.714C26.844 146.42 23.652 146.042 21.286 145.818V146.84ZM21.804 144.194C23.61 144.278 26.102 144.502 27.572 144.684V143.746C26.144 143.564 23.652 143.354 21.804 143.228V144.194ZM21.286 146.462H22.224V141.03H21.286V146.462ZM27.18 147.148H28.118V139.672H27.18V147.148ZM24.198 148.772H25.15V139.434H24.198V148.772ZM21.286 141.422H21.51C26.816 141.576 28.706 141.772 29.126 142.108C29.294 142.234 29.336 142.36 29.336 142.556C29.336 142.808 29.322 143.326 29.28 143.914C29.504 143.788 29.868 143.676 30.092 143.676C30.134 143.06 30.134 142.5 30.092 142.136C30.064 141.744 29.966 141.464 29.616 141.212C29.07 140.806 27.264 140.61 21.776 140.428C21.65 140.428 21.286 140.428 21.286 140.428V141.422ZM17.24 150.648H30.106V149.64H17.24V150.648ZM19.942 151.908C21.174 151.936 22.7 152.146 23.554 152.636L23.876 151.936C22.91 151.404 21.314 151.18 20.054 151.18L19.942 151.908ZM19.774 149.542C20.656 149.136 21.804 148.772 22.518 148.66L22.196 147.946C21.51 148.072 20.39 148.45 19.536 148.87L19.774 149.542ZM18.934 146.182L19.9 146.658V139.714H18.934V146.182ZM17.254 146.084C18.724 146.546 20.152 147.358 21.104 148.324C21.244 148.072 21.538 147.638 21.692 147.456C20.67 146.518 19.116 145.636 17.492 145.09L17.254 146.084ZM18.094 134.24V135.668C18.5 135.584 18.99 135.542 19.508 135.542C20.978 135.542 24.52 135.682 26.592 135.682C28.888 135.682 29.714 134.296 29.714 132.28C29.714 129.214 27.964 127.394 26.634 126.442L25.682 127.226C27.138 128.234 28.566 129.69 28.566 132.252C28.566 133.582 28.034 134.548 26.494 134.548C24.408 134.548 21.09 134.436 19.508 134.38C19.046 134.352 18.556 134.31 18.094 134.24ZM19.704 124.248L20.936 124.122C20.614 122.596 20.264 119.04 20.11 117.528C20.866 118.816 22.644 120.146 24.828 120.146C27.964 120.146 29.336 117.206 29.434 114.602L28.286 114.21C28.188 116.478 27.32 119.04 24.59 119.04C22.938 119.04 20.796 117.822 20.152 115.82C19.956 115.106 19.928 113.888 19.942 113.076L18.822 113.09C18.85 114.028 18.934 115.33 19.06 116.856C19.284 119.446 19.536 122.078 19.634 122.988C19.662 123.268 19.69 123.716 19.704 124.248ZM19.242 108.302L19.214 109.66C19.536 109.576 20.138 109.576 20.46 109.576C21.272 109.576 22.98 109.548 24.184 109.422C27.81 109.03 29.126 107.77 29.126 106.44C29.126 105.488 28.314 104.648 25.948 103.794L24.954 104.676C26.354 105.04 27.796 105.698 27.796 106.412C27.796 107.42 26.242 108.092 23.904 108.33C22.756 108.428 21.468 108.442 20.6 108.428C20.236 108.414 19.564 108.372 19.242 108.302ZM19.62 101.022L19.998 102.1C21.636 100.77 24.52 99.9158 27.04 99.6778L26.592 98.5438C24.226 98.7538 21.244 99.7618 19.62 101.022ZM17.898 89.4158V90.6058C18.08 90.5638 18.5 90.5498 18.738 90.5498C19.718 90.5498 21.188 90.5498 22.448 90.5498C23.68 90.5498 26.368 90.4098 27.446 90.4098C28.426 90.4098 28.664 91.0958 28.664 91.9078C28.664 93.2938 28.188 93.8398 27.53 93.8398C26.886 93.8398 26.368 93.1258 26.368 91.7818C26.368 89.2898 27.768 87.2178 28.93 85.9578L27.936 85.3138C27.054 86.3918 25.458 88.7018 25.458 91.6558C25.458 93.6718 26.312 94.8898 27.586 94.8898C28.944 94.8898 29.658 93.7838 29.658 91.7678C29.658 89.9478 28.664 89.3038 27.684 89.3038C26.746 89.3038 24.296 89.5138 22.448 89.5138C21.272 89.5138 19.396 89.5138 18.836 89.4858C18.416 89.4718 18.136 89.4438 17.898 89.4158ZM19.41 94.7638L20.446 94.7498C20.558 93.8678 20.684 92.1458 20.684 91.1798C20.684 89.3038 20.502 87.3018 20.32 85.7198H19.298C19.592 87.5398 19.718 89.4158 19.718 91.1938C19.718 92.1178 19.578 93.8678 19.41 94.7638ZM22.392 94.8338L23.442 94.8198C23.554 93.8258 23.624 92.2858 23.624 91.3198C23.624 89.2198 23.526 87.5118 23.288 85.6078H22.238C22.504 87.4278 22.644 89.2898 22.644 91.3198C22.644 92.2438 22.546 93.8398 22.392 94.8338ZM17.912 74.6458V75.9338C18.038 75.9058 18.43 75.8638 18.808 75.8358C19.578 75.7938 22.364 75.7798 22.98 75.7798L23.526 74.7158C22.406 74.7298 19.704 74.7578 18.794 74.7158C18.626 74.7158 18.08 74.6738 17.912 74.6458ZM19.872 82.0938L20.95 82.0658C20.796 79.9518 20.698 76.9558 20.698 74.5478C20.698 72.4898 20.726 71.2298 20.768 70.4458L19.732 70.4318C19.718 71.0898 19.718 72.8258 19.718 74.5338C19.718 76.6898 19.844 80.1898 19.872 82.0938ZM23.932 74.7438L23.54 75.5138C25.038 75.2898 25.766 75.8498 25.766 76.7178C25.766 77.4878 25.262 78.1458 24.38 78.1458C23.47 78.1458 22.896 77.4598 22.896 76.7178C22.896 75.9618 23.428 75.3458 24.688 75.3458C26.998 75.3458 28.244 76.8298 28.846 79.3778L29.756 78.4398C28.79 75.1918 26.69 74.2678 24.786 74.2678C23.176 74.2678 21.972 75.0938 21.972 76.7178C21.972 78.0478 23.008 79.1958 24.394 79.1958C25.92 79.1958 26.746 78.0618 26.746 76.8858C26.746 75.6118 25.808 74.7438 23.932 74.7438ZM30.9072 68.8018C30.3786 68.1546 29.8613 67.8311 29.3555 67.8311C28.9134 67.8311 28.5579 68.0635 28.2891 68.5283C28.0293 68.5283 27.8242 68.4531 27.6738 68.3027C27.5189 68.1478 27.4414 67.9473 27.4414 67.7012C27.4414 67.4323 27.5462 67.2158 27.7559 67.0518C27.9609 66.8831 28.223 66.7988 28.542 66.7988C29.0342 66.7988 29.499 66.9447 29.9365 67.2363C30.374 67.5234 30.7979 67.9587 31.208 68.542L30.9072 68.8018ZM35.262 258.07C37.04 256.796 39.224 254.332 40.526 252.162C40.218 251.966 39.868 251.714 39.63 251.448C38.454 253.646 36.298 256.138 34.212 257.608V258.658C36.06 259.736 38.37 262.102 39.784 264.524C39.994 264.286 40.358 263.992 40.61 263.852C39.154 261.486 36.984 259.204 35.262 258.07ZM38.664 261.08H39.658V254.948H38.664V261.08ZM41.422 262.886H42.416V254.374H41.422V262.886ZM41.422 254.584H41.548C42.78 255.116 45.16 256.236 46.882 257.146L47.176 256.04C45.44 255.172 43.172 254.08 41.618 253.422L41.352 254.248L41.422 254.43V254.584ZM46.784 247.178L45.972 246.226C44.95 247.108 43.69 248.368 42.878 249.376L43.676 250.286C44.488 249.292 45.678 248.088 46.784 247.178ZM34.926 230.406L34.884 231.568C35.066 231.568 35.318 231.582 35.57 231.61C36.774 231.736 39.042 232.016 40.96 232.016C42.738 232.016 44.726 231.638 45.972 231.232L45.664 230.21C44.348 230.644 42.668 231.036 40.848 231.036C38.93 231.036 36.718 230.798 35.542 230.56C35.346 230.518 35.094 230.462 34.926 230.406ZM36.648 232.66C36.648 233.262 36.564 234.48 36.48 234.97L37.53 234.942C37.558 234.368 37.614 233.276 37.614 232.674C37.614 230.588 37.404 227.83 37.054 225.814L36.018 225.828C36.452 227.76 36.648 230.196 36.648 232.66ZM38.3 226.822L38.02 227.942C38.244 227.956 38.622 228.026 38.832 228.082C41.1 228.726 42.612 229.874 43.704 231.12C44.488 232.016 44.88 232.926 44.88 233.626C44.88 234.144 44.6 234.424 44.026 234.424C42.738 234.424 41.198 233.164 40.498 231.582C40.176 230.868 39.84 229.832 39.84 228.656C39.84 226.57 41.03 225.422 42.388 225.422C44.194 225.422 45.496 226.99 45.776 229.51L46.714 228.908C46.196 225.66 44.446 224.33 42.444 224.33C40.484 224.33 38.944 225.996 38.944 228.642C38.944 229.552 39.154 230.686 39.518 231.624C40.316 233.696 42.29 235.474 44.208 235.474C45.398 235.474 45.958 234.746 45.958 233.822C45.958 232.828 45.44 231.708 44.754 230.812C43.62 229.342 41.674 227.942 39.084 227.116C38.86 227.032 38.482 226.906 38.3 226.822ZM37.18 221.656L38.23 221.572C38.244 221.054 38.258 220.452 38.258 219.934C38.272 218.226 37.964 216.392 37.586 215.02L36.55 215.048C37.082 216.658 37.264 218.422 37.264 219.934C37.264 220.536 37.236 221.138 37.18 221.656ZM34.898 216.686L34.772 217.918C35.752 217.96 36.984 218.268 37.866 218.576C39.518 219.15 42.01 220.452 43.466 221.698L44.026 220.62C42.458 219.458 39.91 218.17 37.894 217.498C36.9 217.162 35.584 216.868 34.898 216.686ZM39.224 213.382V214.488C40.764 214.432 43.27 214.278 44.334 214.278C45.09 214.278 45.706 214.67 45.706 215.832C45.706 216.924 45.258 217.47 44.614 217.47C43.97 217.47 43.494 216.77 43.494 215.734C43.494 213.676 44.74 212.066 45.72 210.988L44.768 210.4C43.774 211.548 42.598 213.354 42.598 215.706C42.598 217.274 43.41 218.492 44.698 218.492C46.098 218.492 46.714 217.246 46.714 215.706C46.714 213.97 45.804 213.256 44.684 213.256C43.76 213.256 41.632 213.382 40.722 213.41C40.218 213.424 39.798 213.424 39.224 213.382ZM39.588 210.582L38.664 209.952C38.16 210.624 37.25 212.206 36.816 213.228L37.656 213.788C38.09 212.864 38.944 211.338 39.588 210.582ZM34.996 202.812L34.884 204.142C35.178 204.114 35.654 204.142 36.046 204.198C36.774 204.296 38.538 204.66 39.826 204.996C41.8 205.528 44.642 206.508 46.098 207.348L46.504 206.13C44.978 205.388 42.08 204.45 40.092 203.946C38.692 203.554 37.11 203.26 36.102 203.05C35.836 202.994 35.304 202.896 34.996 202.812ZM37.334 205.906C37.334 206.424 37.306 206.928 37.222 207.586L38.314 207.558C38.356 207.04 38.37 206.55 38.37 205.934C38.37 204.422 38.132 202.308 37.74 200.572H36.648C37.082 202.308 37.334 204.366 37.334 205.906ZM39.252 201.482H40.302C40.204 200.628 40.148 199.76 40.148 198.892C40.148 198.066 40.232 197.254 40.316 196.526L39.252 196.498C39.168 197.254 39.14 198.108 39.14 198.92C39.14 199.816 39.182 200.754 39.252 201.482ZM42.654 201.202L42.556 202.238C43.144 202.364 43.676 202.448 44.208 202.448C45.594 202.448 46.266 201.244 46.266 199.046C46.266 198.024 46.182 197.086 46.07 196.33L44.95 196.288C45.118 197.156 45.216 198.108 45.216 199.032C45.216 201.02 44.572 201.398 43.914 201.398C43.55 201.398 43.116 201.314 42.654 201.202ZM37.726 189.428L38.79 189.414C38.846 188.602 38.874 187.874 38.874 187.062C38.874 185.424 38.762 183.716 38.51 182.232H37.432C37.726 183.646 37.852 185.368 37.852 187.048C37.852 187.874 37.81 188.63 37.726 189.428ZM35.22 184.528V185.788C35.472 185.746 35.836 185.732 36.088 185.732C36.578 185.732 37.46 185.718 38.426 185.718C40.274 185.718 42.892 185.536 43.9 185.536C44.838 185.536 45.426 185.872 45.426 187.048C45.426 188.07 45.048 188.756 44.32 188.756C43.648 188.756 43.186 188.028 43.186 186.978C43.186 185.2 44.138 183.786 45.51 182.316L44.586 181.714C43.522 182.89 42.332 184.528 42.332 186.88C42.332 188.728 43.256 189.764 44.432 189.764C45.692 189.764 46.448 188.742 46.448 186.866C46.448 184.976 45.328 184.444 44.18 184.444C42.738 184.444 40.554 184.654 38.398 184.654C37.572 184.654 36.578 184.64 36.06 184.612C35.794 184.598 35.5 184.57 35.22 184.528ZM35.318 191.43L35.206 192.662C35.514 192.676 35.878 192.704 36.214 192.76C37.362 192.928 40.036 193.404 42.094 193.404C43.984 193.404 45.524 193.138 46.532 192.872L46.448 191.878C46.308 191.892 46.098 191.906 45.958 191.92C45.804 191.934 45.524 191.906 45.328 191.864C44.642 191.724 43.214 191.206 42.234 190.856L41.786 191.43C42.36 191.668 43.214 192.018 43.858 192.242C43.172 192.34 42.584 192.382 41.898 192.382C40.33 192.382 37.558 191.962 36.256 191.682C36.004 191.626 35.542 191.514 35.318 191.43ZM39.854 180.23H40.848V176.254H39.854V180.23ZM37.138 178.41H38.146V173.916H37.138V178.41ZM37.768 173.51L37.964 174.406C41.856 173.37 44.838 171.438 46.21 168.232C45.93 168.078 45.51 167.742 45.3 167.504C44.124 170.626 41.268 172.586 37.768 173.51ZM38.132 168.96C39.196 169.884 40.596 171.494 41.436 172.684L42.038 171.942C41.226 170.724 39.924 169.17 38.818 167.994L38.132 168.96ZM37.138 174.532H45.762C45.986 174.532 46.056 174.602 46.07 174.854C46.084 175.092 46.084 175.918 46.042 176.772C46.35 176.604 46.812 176.45 47.106 176.394C47.106 175.232 47.092 174.476 46.924 174.014C46.742 173.566 46.42 173.412 45.776 173.412H37.138V174.532ZM35.122 177.122C35.584 175.358 36.41 173.104 37.054 171.942L36.074 171.41C35.444 172.6 34.66 174.882 34.268 176.604L35.122 177.122ZM39.854 176.646H40.064C42.5 177.248 44.432 178.76 45.44 180.524C45.622 180.272 46.014 179.852 46.252 179.684C45.09 177.892 42.99 176.268 40.106 175.54L39.812 176.24L39.854 176.436V176.646ZM39.77 163.57V166.356H40.75V164.578H44.726V163.57H39.77ZM44.306 163.57V164.48C44.908 165.138 45.538 165.894 45.986 166.51L47.008 165.964C46.392 165.264 45.79 164.62 45.188 164.004C46.294 163.136 46.784 161.862 46.854 160.014C46.924 158.446 46.896 155.45 46.826 153.868C46.518 153.826 46.028 153.658 45.79 153.532C45.902 155.226 45.944 158.46 45.874 160.014C45.818 161.68 45.342 162.912 44.306 163.57ZM35.178 166.23C35.864 165.376 36.844 164.41 37.544 164.018L36.886 163.15C36.2 163.584 35.234 164.564 34.604 165.432L35.178 166.23ZM39.462 160.756V156.066H40.862V160.756H39.462ZM38.692 161.736H41.618V155.044H38.692V161.736ZM37.124 162.884H37.922V153.854H37.124V162.884ZM35.332 162.114H36.116V154.708H35.332V162.114ZM34.254 158.964H37.614V157.942H34.254V158.964ZM41.198 158.992H45.3V157.984H41.198V158.992ZM41.184 158.978C42.332 159.804 43.27 161.4 43.844 162.954C44.026 162.758 44.446 162.436 44.642 162.31C43.956 160.7 42.85 159.006 41.478 158.054L41.184 158.978ZM41.38 154.848C41.87 155.38 42.556 156.332 42.976 157.018L43.396 156.402C43.032 155.688 42.458 154.778 41.884 154.036L41.38 154.848ZM41.506 157.998L41.73 158.796C43.27 157.914 44.488 156.262 45.034 154.414C44.782 154.274 44.418 154.022 44.236 153.798C43.802 155.576 42.78 157.214 41.506 157.998ZM36.55 146.63L37.684 146.616C37.852 145.09 37.852 142.374 37.684 140.876H36.55C36.76 142.262 36.816 145.104 36.55 146.63ZM42.262 146.084L42.164 147.092C42.836 147.246 43.34 147.316 43.802 147.316C45.118 147.316 45.902 146.266 45.902 143.928C45.902 142.472 45.79 141.296 45.608 140.428L44.432 140.456C44.698 141.576 44.81 142.668 44.81 143.914C44.81 145.832 44.18 146.28 43.536 146.28C43.158 146.28 42.766 146.21 42.262 146.084ZM35.472 149.29L35.374 150.536C35.682 150.55 36.032 150.592 36.354 150.634C37.516 150.802 39.91 151.264 41.968 151.264C43.872 151.264 45.482 151.026 46.476 150.746L46.406 149.752C46.252 149.766 46.056 149.78 45.916 149.794C45.748 149.794 45.482 149.766 45.286 149.724C44.614 149.598 43.144 149.08 42.15 148.73L41.688 149.318C42.262 149.556 43.102 149.878 43.732 150.116C43.046 150.2 42.458 150.242 41.786 150.242C40.204 150.242 37.712 149.808 36.41 149.542C36.158 149.486 35.71 149.374 35.472 149.29ZM39.77 135.57V138.356H40.75V136.578H44.726V135.57H39.77ZM44.306 135.57V136.48C44.908 137.138 45.538 137.894 45.986 138.51L47.008 137.964C46.392 137.264 45.79 136.62 45.188 136.004C46.294 135.136 46.784 133.862 46.854 132.014C46.924 130.446 46.896 127.45 46.826 125.868C46.518 125.826 46.028 125.658 45.79 125.532C45.902 127.226 45.944 130.46 45.874 132.014C45.818 133.68 45.342 134.912 44.306 135.57ZM35.178 138.23C35.864 137.376 36.844 136.41 37.544 136.018L36.886 135.15C36.2 135.584 35.234 136.564 34.604 137.432L35.178 138.23ZM35.878 130.866H45.496V129.858H35.878V130.866ZM40.834 133.008V127.674H41.786V133.008H40.834ZM39.224 133.008V127.674H40.148V133.008H39.224ZM38.51 133.918H42.5V126.722H38.51V133.918ZM34.744 134.66H36.564V133.722H35.542V126.96H36.564V125.98H34.744V134.66ZM36.872 134.366H37.656V126.316H36.872V134.366ZM43.34 134.898H44.166V125.728H43.34V134.898ZM35.206 118.056C36.844 116.684 38.664 114.108 39.686 111.91C39.378 111.728 39.014 111.476 38.748 111.224C37.852 113.478 36.088 116.012 34.212 117.58V118.658C35.864 119.82 37.782 122.242 38.916 124.734C39.14 124.51 39.532 124.23 39.784 124.104C38.594 121.654 36.76 119.274 35.206 118.056ZM37.852 120.814H38.804V115.074H37.852V120.814ZM40.064 122.676H40.988V119.722H43.928V122.676H44.866V118.756H40.064V122.676ZM40.05 117.552H47.148V116.558H40.988V113.394H40.05V117.552ZM40.05 113.73H44.418C44.6 113.73 44.642 113.786 44.656 113.982C44.67 114.192 44.67 114.864 44.642 115.648C44.908 115.522 45.314 115.368 45.608 115.34C45.608 114.276 45.594 113.618 45.426 113.226C45.272 112.82 44.964 112.708 44.446 112.708H40.05V113.73ZM40.064 123.11H46.056V122.158H40.064V123.11ZM38.944 110.188L40.176 109.67C39.728 108.55 38.188 104.994 38.188 102.684C38.188 100.794 39.35 99.716 40.82 99.716C43.69 99.716 44.796 102.992 44.894 106.646L46.056 106.156C45.818 101.83 44.194 98.498 40.834 98.498C38.496 98.498 37.152 100.332 37.152 102.656C37.152 104.7 38.16 107.444 38.538 108.634C38.692 109.166 38.846 109.67 38.944 110.188ZM35.024 100.416L35.346 101.158C35.878 100.78 36.718 100.304 37.292 100.024L36.956 99.268C36.382 99.548 35.528 100.066 35.024 100.416ZM34.464 98.876L34.786 99.618C35.304 99.212 36.102 98.75 36.718 98.442L36.382 97.7C35.85 97.952 34.982 98.498 34.464 98.876ZM35.094 86.346V87.662C35.304 87.606 35.612 87.55 35.92 87.522C36.508 87.48 38.678 87.424 39.574 87.424C42.262 87.424 43.858 87.494 45.16 88.992C45.51 89.342 45.86 89.916 46.042 90.35L46.826 89.328C45.09 86.36 42.794 86.36 39.588 86.36C38.804 86.36 36.438 86.416 35.92 86.402C35.598 86.402 35.318 86.388 35.094 86.346ZM37.992 91.47H39.098C39.154 90.854 39.196 89.874 39.196 89.188C39.196 87.41 39.07 85.45 38.846 84.092H37.712C38.034 85.492 38.146 87.48 38.146 89.202C38.146 89.972 38.09 90.854 37.992 91.47ZM35.304 93.43L35.164 94.732C35.416 94.746 35.794 94.76 36.102 94.802C37.278 94.97 39.42 95.334 41.702 95.334C43.452 95.334 45.272 94.886 46.14 94.606L46.028 93.64C45.874 93.654 45.692 93.682 45.552 93.682C45.384 93.696 45.118 93.668 44.922 93.626C44.222 93.472 42.794 93.052 41.828 92.716L41.464 93.318C42.15 93.57 43.004 93.878 43.606 94.06C41.31 94.606 38.244 94.116 36.214 93.668C35.948 93.612 35.556 93.514 35.304 93.43ZM35.024 78.324L36.102 78.604C36.382 77.526 36.998 74.502 37.18 73.158L36.116 72.892C35.99 74.138 35.416 77.12 35.024 78.324ZM37.586 78.632L37.432 79.808C38.888 79.892 41.828 80.242 43.102 80.522L43.354 79.472C43.13 79.388 42.906 79.262 42.668 79.052C41.478 78.072 40.792 76.56 40.792 74.726C40.792 73.298 41.59 72.248 42.696 72.248C44.614 72.248 45.888 74.404 45.356 78.828L46.49 78.492C46.924 73.298 45.23 71.072 42.738 71.072C41.086 71.072 39.798 72.5 39.798 74.642C39.798 76.322 40.344 77.862 41.52 79.206C40.61 79.066 38.538 78.814 37.586 78.632ZM44.936 55.364L43.746 55.546C44.488 56.26 44.894 57.002 44.894 57.66C44.894 58.164 44.516 58.402 44.04 58.402C42.626 58.402 40.218 57.87 38.818 57.87C37.684 57.87 36.942 58.514 36.942 59.83C36.942 61.552 38.958 63.876 39.91 64.744L41.296 64.758C39.7 63.442 37.964 61.412 37.964 60.096C37.964 59.382 38.314 58.976 39.126 58.976C40.484 58.976 42.78 59.494 44.348 59.494C45.496 59.494 46.112 58.878 46.112 57.94C46.112 56.988 45.692 56.12 44.936 55.364ZM38.244 64.772L38.622 64.884L39.35 64.94C40.274 65.486 42.836 67.376 43.928 68.244L44.88 67.544C43.662 66.662 41.772 65.36 40.778 64.716L38.86 64.296C38.468 64.058 37.866 63.68 37.502 63.442L37.026 63.848C37.236 64.492 37.446 66.242 37.488 66.984C37.516 67.334 37.516 67.6 37.502 67.908L38.664 67.782C38.496 66.746 38.314 65.234 38.244 64.772ZM35.934 64.912C36.452 64.912 40.89 65.248 42.122 65.276C43.662 65.29 44.362 65.304 45.72 65.304C45.944 65.304 46.28 65.318 46.546 65.346V64.142C46.28 64.156 45.93 64.198 45.692 64.212C44.446 64.268 43.592 64.268 42.318 64.268C39.854 64.268 35.85 63.848 34.94 63.652L34.898 64.968C35.248 64.898 35.612 64.912 35.934 64.912ZM36.704 54.2478L37.936 54.1218C37.614 52.5958 37.264 49.0398 37.11 47.5278C37.866 48.8158 39.644 50.1458 41.828 50.1458C44.964 50.1458 46.336 47.2058 46.434 44.6018L45.286 44.2098C45.188 46.4778 44.32 49.0398 41.59 49.0398C39.938 49.0398 37.796 47.8218 37.152 45.8198C36.956 45.1058 36.928 43.8878 36.942 43.0758L35.822 43.0898C35.85 44.0278 35.934 45.3298 36.06 46.8558C36.284 49.4458 36.536 52.0778 36.634 52.9878C36.662 53.2678 36.69 53.7158 36.704 54.2478ZM36.242 38.3018L36.214 39.6598C36.536 39.5758 37.138 39.5758 37.46 39.5758C38.272 39.5758 39.98 39.5478 41.184 39.4218C44.81 39.0298 46.126 37.7698 46.126 36.4398C46.126 35.4878 45.314 34.6478 42.948 33.7938L41.954 34.6758C43.354 35.0398 44.796 35.6978 44.796 36.4118C44.796 37.4198 43.242 38.0918 40.904 38.3298C39.756 38.4278 38.468 38.4418 37.6 38.4278C37.236 38.4138 36.564 38.3718 36.242 38.3018ZM36.62 31.0218L36.998 32.0998C38.636 30.7698 41.52 29.9158 44.04 29.6778L43.592 28.5438C41.226 28.7538 38.244 29.7618 36.62 31.0218ZM34.898 19.4158V20.6058C35.08 20.5638 35.5 20.5498 35.738 20.5498C36.718 20.5498 38.188 20.5498 39.448 20.5498C40.68 20.5498 43.368 20.4098 44.446 20.4098C45.426 20.4098 45.664 21.0958 45.664 21.9078C45.664 23.2938 45.188 23.8398 44.53 23.8398C43.886 23.8398 43.368 23.1258 43.368 21.7818C43.368 19.2898 44.768 17.2178 45.93 15.9578L44.936 15.3138C44.054 16.3918 42.458 18.7018 42.458 21.6558C42.458 23.6718 43.312 24.8898 44.586 24.8898C45.944 24.8898 46.658 23.7838 46.658 21.7678C46.658 19.9478 45.664 19.3038 44.684 19.3038C43.746 19.3038 41.296 19.5138 39.448 19.5138C38.272 19.5138 36.396 19.5138 35.836 19.4858C35.416 19.4718 35.136 19.4438 34.898 19.4158ZM36.41 24.7638L37.446 24.7498C37.558 23.8678 37.684 22.1458 37.684 21.1798C37.684 19.3038 37.502 17.3018 37.32 15.7198H36.298C36.592 17.5398 36.718 19.4158 36.718 21.1938C36.718 22.1178 36.578 23.8678 36.41 24.7638ZM39.392 24.8338L40.442 24.8198C40.554 23.8258 40.624 22.2858 40.624 21.3198C40.624 19.2198 40.526 17.5118 40.288 15.6078H39.238C39.504 17.4278 39.644 19.2898 39.644 21.3198C39.644 22.2438 39.546 23.8398 39.392 24.8338ZM34.912 4.64583V5.93383C35.038 5.90583 35.43 5.86383 35.808 5.83583C36.578 5.79383 39.364 5.77983 39.98 5.77983L40.526 4.71583C39.406 4.72983 36.704 4.75783 35.794 4.71583C35.626 4.71583 35.08 4.67383 34.912 4.64583ZM36.872 12.0938L37.95 12.0658C37.796 9.95183 37.698 6.95583 37.698 4.54783C37.698 2.48983 37.726 1.22983 37.768 0.445827L36.732 0.431828C36.718 1.08983 36.718 2.82583 36.718 4.53383C36.718 6.68983 36.844 10.1898 36.872 12.0938ZM40.932 4.74383L40.54 5.51383C42.038 5.28983 42.766 5.84983 42.766 6.71783C42.766 7.48783 42.262 8.14583 41.38 8.14583C40.47 8.14583 39.896 7.45983 39.896 6.71783C39.896 5.96183 40.428 5.34583 41.688 5.34583C43.998 5.34583 45.244 6.82983 45.846 9.37783L46.756 8.43983C45.79 5.19183 43.69 4.26783 41.786 4.26783C40.176 4.26783 38.972 5.09383 38.972 6.71783C38.972 8.04783 40.008 9.19583 41.394 9.19583C42.92 9.19583 43.746 8.06183 43.746 6.88583C43.746 5.61183 42.808 4.74383 40.932 4.74383ZM56.238 261.584V254.332H57.148V261.584H56.238ZM54.684 261.584V254.332H55.566V261.584H54.684ZM53.998 262.606H57.82V253.282H53.998V262.606ZM52.192 264.034H53.06V251.896H52.192V264.034ZM62.916 263.516H63.77V252.358H62.916V263.516ZM60.83 261.5H61.642V254.514H60.83V261.5ZM58.646 264.272H59.5V251.756H58.646V264.272ZM51.254 260.926H53.858V259.904H51.254V260.926ZM51.254 256.082H53.858V255.06H51.254V256.082ZM59.836 258.518H63.336V257.468H59.836V258.518ZM57.582 259.89C59.01 260.506 60.508 262.018 61.432 264.524C61.586 264.314 61.936 264.034 62.188 263.922C61.11 261.262 59.5 259.666 57.736 258.84L57.582 259.89ZM58.884 255.312L59.164 256.096C60.41 255.228 61.544 253.632 62.076 252.092C61.824 251.952 61.46 251.658 61.264 251.448C60.844 252.932 59.892 254.514 58.884 255.312ZM52.304 250.09H53.34V237.896H52.304V250.09ZM62.132 247.122H63.154V239.17H62.132V247.122ZM57.008 247.584H64.134V246.534H58.03V239.856H64.106V238.75H57.008V247.584ZM52.808 245.89C55.468 246.688 58.38 248.312 60.116 250.664C60.312 250.44 60.69 250.09 60.928 249.922C59.038 247.444 56 245.778 53.088 244.77L52.808 245.89ZM53.55 230.63L54.684 230.616C54.852 229.09 54.852 226.374 54.684 224.876H53.55C53.76 226.262 53.816 229.104 53.55 230.63ZM59.262 230.084L59.164 231.092C59.836 231.246 60.34 231.316 60.802 231.316C62.118 231.316 62.902 230.266 62.902 227.928C62.902 226.472 62.79 225.296 62.608 224.428L61.432 224.456C61.698 225.576 61.81 226.668 61.81 227.914C61.81 229.832 61.18 230.28 60.536 230.28C60.158 230.28 59.766 230.21 59.262 230.084ZM52.472 233.29L52.374 234.536C52.682 234.55 53.032 234.592 53.354 234.634C54.516 234.802 56.91 235.264 58.968 235.264C60.872 235.264 62.482 235.026 63.476 234.746L63.406 233.752C63.252 233.766 63.056 233.78 62.916 233.794C62.748 233.794 62.482 233.766 62.286 233.724C61.614 233.598 60.144 233.08 59.15 232.73L58.688 233.318C59.262 233.556 60.102 233.878 60.732 234.116C60.046 234.2 59.458 234.242 58.786 234.242C57.204 234.242 54.712 233.808 53.41 233.542C53.158 233.486 52.71 233.374 52.472 233.29ZM58.31 218.408C60.004 215.538 62.384 215.23 63.014 216.182C63.21 216.448 63.238 216.756 63.238 217.092C63.238 217.4 63.238 217.876 63.182 218.352C63.462 218.17 63.868 218.072 64.134 218.058C64.148 217.638 64.162 217.218 64.162 216.91C64.162 216.336 64.064 215.972 63.77 215.51C62.832 214.068 59.682 214.376 57.778 217.722L58.31 218.408ZM58.772 216.966C59.626 218.086 60.438 220.284 60.802 222.006C60.984 221.824 61.32 221.558 61.544 221.418C61.11 219.682 60.158 217.456 59.164 216.224L58.772 216.966ZM60.046 216.028C61.306 217.4 62.51 220.06 63.042 222.258C63.252 222.048 63.616 221.768 63.84 221.628C63.21 219.472 61.894 216.77 60.466 215.272L60.046 216.028ZM52.178 218.73H53.018V214.6H52.178V218.73ZM56.672 216.154C57.596 217.54 58.366 219.99 58.786 222.076C58.968 221.908 59.374 221.628 59.556 221.516C59.038 219.43 58.156 216.882 57.064 215.342L56.672 216.154ZM56.854 214.95L57.064 215.818C60.27 214.908 62.622 213.116 63.7 210.26C63.42 210.12 63.028 209.812 62.832 209.588C61.936 212.332 59.71 214.124 56.854 214.95ZM57.456 210.89C58.184 211.744 59.15 213.256 59.696 214.334L60.242 213.676C59.724 212.57 58.842 211.114 58.086 210.036L57.456 210.89ZM54.88 219.78V212.122H56.49V219.78H54.88ZM54.068 220.774H57.302V211.1H54.068V220.774ZM51.198 218.352C52.346 219.094 53.732 220.466 54.74 222.3C54.894 222.076 55.23 221.74 55.468 221.586C54.292 219.654 52.822 218.24 51.422 217.26L51.198 218.352ZM54.46 216.56H56.952V215.524H54.46V216.56ZM52.178 214.992H52.388C52.962 215.272 53.83 215.888 54.334 216.462C54.46 216.224 54.684 215.888 54.824 215.692C54.278 215.076 53.382 214.334 52.598 213.886L52.136 214.6L52.178 214.768V214.992ZM52.108 208.202H53.102L53.102 200.992H52.108L52.108 208.202ZM56.728 208.426H57.708L57.708 200.796H56.728L56.728 208.426ZM52.374 203.344H64.12V202.308H52.374V203.344ZM52.36 206.592H56.868C59.22 206.592 61.628 206.788 63.504 208.496C63.658 208.244 63.994 207.866 64.204 207.698C62.146 205.822 59.5 205.598 56.868 205.598H52.36V206.592ZM51.478 197.17C52.612 198.024 53.788 199.634 54.46 200.978C54.656 200.698 54.978 200.39 55.202 200.208C54.418 198.794 53.172 197.212 51.884 196.176L51.478 197.17ZM55.328 196.75C56.546 197.688 57.82 199.396 58.548 200.824C58.744 200.558 59.066 200.25 59.29 200.082C58.45 198.584 57.106 196.876 55.734 195.798L55.328 196.75ZM59.122 196.442C60.872 197.492 62.412 199.48 63.28 201.552C63.49 201.286 63.868 200.978 64.12 200.81C63.112 198.64 61.446 196.638 59.514 195.448L59.122 196.442ZM54.152 184.864C58.954 186.432 61.698 189.47 63.126 194.468C63.378 194.244 63.882 193.908 64.148 193.796C62.496 188.7 59.612 185.522 54.474 183.758L54.152 184.864ZM54.222 191.22L54.544 192.256C59.444 190.534 62.776 187.454 64.134 182.26C63.826 182.092 63.35 181.756 63.098 181.504C61.922 186.558 58.702 189.708 54.222 191.22ZM53.62 194.3H54.656V181.644H53.62V194.3ZM51.24 188.56H54.25V187.482H51.24V188.56ZM55.3 177.738H56.266V171.018H55.3V177.738ZM58.814 180.02H59.808V167.952H58.814V180.02ZM57.764 174.546H62.804C63 174.546 63.056 174.616 63.07 174.868C63.084 175.12 63.084 176.03 63.056 176.982C63.35 176.8 63.798 176.59 64.106 176.52C64.106 175.33 64.092 174.588 63.924 174.098C63.756 173.594 63.448 173.44 62.818 173.44H57.764V174.546ZM55.3 171.34H55.51C56.294 171.97 57.344 173.216 57.932 174.308C58.072 174.14 58.338 173.86 58.534 173.734C57.876 172.446 56.784 171.06 55.762 170.136L55.244 170.822L55.3 171.06V171.34ZM51.226 174.574H53.48V173.468H51.226V174.574ZM52.766 179.88H56.056V178.844H53.76V169.212H56.056V168.134H52.766V179.88ZM51.94 160.56L51.842 161.708C52.5 161.75 53.34 161.946 54.11 162.254C55.3 162.73 56.924 163.668 58.856 165.684L59.57 164.718C58.996 164.256 58.492 163.864 58.1 163.458C57.526 162.814 57.078 161.932 57.078 161.036C57.078 160.308 57.456 159.748 58.268 159.734C58.996 159.72 60.438 159.734 61.18 159.79V158.712C60.312 158.726 58.702 158.754 57.974 158.754C56.84 158.754 56.196 159.594 56.196 160.672C56.196 161.288 56.392 162.086 56.714 162.632C55.986 162.072 55.048 161.554 54.194 161.204C53.256 160.84 52.486 160.686 51.94 160.56ZM53.452 165.362H54.502C54.558 164.578 54.586 163.654 54.586 163.052C54.586 161.274 54.46 158.67 54.166 156.71H53.13C53.48 158.684 53.592 161.106 53.592 162.996C53.592 163.64 53.55 164.606 53.452 165.362ZM56.826 154.666L55.79 155.114C55.986 155.506 56.14 155.856 56.336 156.276C56.77 157.2 57.204 158.334 57.89 159.664C58.744 161.33 59.794 163.066 61.502 163.066C63.196 163.066 63.63 161.456 63.63 159.468C63.63 158.25 63.518 156.696 63.392 155.632L62.258 155.59C62.482 156.822 62.608 158.334 62.608 159.426C62.608 160.868 62.44 161.946 61.348 161.946C60.382 161.946 59.626 160.966 58.898 159.58C58.198 158.222 57.666 156.892 57.274 155.898C57.134 155.52 56.938 155.016 56.826 154.666ZM53.256 148.002H54.222V139.686H53.256V148.002ZM51.254 146.042H56.056V145.034H51.254V146.042ZM51.254 142.542H56.056V141.52H51.254V142.542ZM56.672 147.372H64.106V146.42H57.61V141.198H64.036V140.19H56.672V147.372ZM59.542 146.854H60.466V140.722H59.542V146.854ZM62.44 146.826H63.378V140.708H62.44V146.826ZM57.092 144.306H63.098V143.34H57.092V144.306ZM58.688 152.622L59.71 152.342C59.332 151.166 58.842 149.654 58.352 148.212L57.4 148.352C57.89 149.92 58.394 151.544 58.688 152.622ZM54.068 152.426H55.048V148.254H54.068V152.426ZM51.254 150.732H62.804C63.014 150.732 63.07 150.788 63.07 150.97C63.07 151.138 63.07 151.67 63.056 152.286C63.35 152.146 63.784 152.02 64.036 151.992C64.036 151.096 64.008 150.55 63.84 150.228C63.672 149.878 63.392 149.752 62.818 149.752H51.254V150.732ZM52.682 129.144L51.758 130.194C52.01 130.348 52.416 130.712 52.696 130.992C53.648 131.93 55.328 134.058 56.21 135.122C57.274 136.382 57.876 136.536 58.982 135.22C60.06 133.904 61.88 131.79 62.888 130.796C63.238 130.46 63.574 130.124 63.91 129.83L63 128.836C61.502 130.32 59.514 132.798 58.464 134.072C57.708 134.982 57.498 134.968 56.77 134.128C55.902 133.092 54.32 131.076 53.48 130.11C53.284 129.886 52.906 129.452 52.682 129.144Z" fill="#EB4E4E"/>
</svg>
